<?xml version="1.0" encoding="utf-8"?>
<!-- Generator: Adobe Illustrator 24.3.0, SVG Export Plug-In . SVG Version: 6.00 Build 0)  -->
<svg version="1.1" xmlns="http://www.w3.org/2000/svg" xmlns:xlink="http://www.w3.org/1999/xlink" x="0px" y="0px"
	 viewBox="0 0 3710 3710" style="enable-background:new 0 0 3710 3710;" xml:space="preserve">
<g id="Background" style="display:none;">
	<g style="display:inline;">
		<g>
			<rect style="fill:#FFFFFF;" width="3710" height="3710"/>
		</g>
	</g>
</g>
<g id="Illustration">
	<g>
		<path style="fill:#F4F7FA;" d="M1136.19,617.63c-95.81,134.13,12.56,354.35-128.56,454.5c-137.37,97.49-303.15-66.42-432.53,17.38
			c-191.93,124.31-163.2,702.67,111.68,1064.73c82.67,108.88,152.25,151.64,181.98,274.11c63.83,262.97-171.85,416.53-128.68,546.71
			c97.21,293.13,1636.93,554.43,2265-316.82c293.34-406.91,342.81-998.44,89.31-1450.77
			C2636.31,390.11,1351.16,316.68,1136.19,617.63z"/>
		<g>
			<g>
				<linearGradient id="SVGID_1_" gradientUnits="userSpaceOnUse" x1="2210.0212" y1="1650.7047" x2="1787.5066" y2="3258.3191">
					<stop  offset="0" style="stop-color:#FF9085"/>
					<stop  offset="1" style="stop-color:#FB6FBB"/>
				</linearGradient>
				<path style="fill:url(#SVGID_1_);" d="M1863.1,3061.44c-44.79,15.36-452.52-513.26-424.07-1093.72
					c44.25-902.62,1127.54-1610.01,1491.94-1432.14c99.85,48.74,180.88,181.09,188.91,302.26
					c10.14,152.97-93.73,323.79-219.79,408.17c-78.21,52.35-154.03,108.3-233.59,158.56c-37.55,23.72-81.53,50.63-79,82.43
					c2.5,31.39,47.94,38.11,89.3,75.56c61.89,56.04,94.01,162.19,68.88,231.75c-37.2,102.95-202.52,133.23-323.67,155.42
					c-150.98,27.65-226.19,4.34-307.89,72.1c-43.79,36.32-84.62,94.8-68.81,125.56c23.03,44.82,149.89-1.02,186.95,56.73
					c8.28,12.91,14.98,35.5-0.32,82.62c-66.55,205-343.68,240.5-372.6,419.59c-6.01,37.22,6.57,31.9,9.8,194.15
					C1871.24,3005.69,1872.28,3058.3,1863.1,3061.44z"/>
				<path style="opacity:0.3;fill:#FFFFFF;" d="M1848.26,2974.62c-15.81,3.14-229.75-420.67-180.31-911.87
					c83.03-825.03,878.72-1538.71,1190.07-1416.75c123.79,48.49,206.51,242.97,159.71,360.63
					c-82.68,207.88-554.27,137.33-628.52,365.78c-27.57,84.81,31.93,111.46,0,200.92c-72.31,202.6-414.69,170.32-448.21,319.41
					c-26,115.65,170.33,178.14,159.71,334.87c-9.06,133.6-155.86,149.2-236.98,329.72
					C1771.12,2763.37,1859.28,2972.43,1848.26,2974.62z"/>
			</g>
			
				<linearGradient id="SVGID_2_" gradientUnits="userSpaceOnUse" x1="1826.1063" y1="2412.2515" x2="890.5331" y2="3524.0913" gradientTransform="matrix(0.9933 -0.1152 0.1152 0.9933 456.3022 84.6027)">
				<stop  offset="3.597120e-03" style="stop-color:#E38DDD"/>
				<stop  offset="1" style="stop-color:#9571F6"/>
			</linearGradient>
			<path style="fill:url(#SVGID_2_);" d="M1988.44,3069.02c-52.07-3.15-198.47-497.44,7.97-934.82
				c184.15-390.14,623-679.86,954.3-592.58c112.81,29.72,271.69,118.57,276.47,229.07c4.15,95.75-108.28,187.65-189.72,228.19
				c-132.67,66.04-239.15,23.66-264.53,83.83c-18.96,44.95,19.98,117.12,67.92,151.18c58.02,41.22,99.35,5.42,152.96,44.5
				c53.8,39.21,79.85,124.59,61.47,197c-19.54,77.01-82.8,113.57-108.26,128.29c-41.76,24.14-85.56,33.32-166.35,34.48
				c-136.45,1.96-181.19-21.8-260.9-24.93c-147.77-5.81-291.95,64.15-377.49,148.78
				C2004.99,2897.86,2019.46,3070.89,1988.44,3069.02z"/>
			<path style="opacity:0.5;fill:#FFFFFF;" d="M1987.36,3000.38c-10.25-1.78-80.02-566.06,278.2-984
				c204.31-238.37,564.42-447.63,767.62-345.17c56.42,28.45,133.36,97.37,123.64,159.71c-8.28,53.12-79.71,82.42-170.01,118.49
				c-194.82,77.83-282.41,47.34-314.26,108.19c-34.9,66.67,28.07,183.83,97.88,247.29c87.25,79.31,177.89,68.14,190.62,123.64
				c11.05,48.23-44.69,112.04-103.04,144.25c-125.8,69.46-219.6-32.31-458.51-10.3c-77.07,7.1-158.38,14.59-234,66.39
				C1991.42,2748.1,1994.3,3001.58,1987.36,3000.38z"/>
		</g>
		<g>
			<linearGradient id="SVGID_3_" gradientUnits="userSpaceOnUse" x1="3322.4697" y1="1036.9452" x2="1489.8185" y2="3540.3679">
				<stop  offset="0" style="stop-color:#444B8C"/>
				<stop  offset="0.9964" style="stop-color:#3E4177"/>
			</linearGradient>
			<path style="fill:url(#SVGID_3_);" d="M2118.04,2939.99c-75.23,99.61-37.92,278.45-166.21,262.21
				c-142.07-17.98-254.49-102-254.49-230.5c0-128.5,96.32-238.41,213.41-245.39C2025.96,2719.46,2248.57,2767.17,2118.04,2939.99z"
				/>
			<linearGradient id="SVGID_4_" gradientUnits="userSpaceOnUse" x1="2437.022" y1="829.2905" x2="855.9839" y2="2989.0068">
				<stop  offset="0" style="stop-color:#444B8C"/>
				<stop  offset="0.9964" style="stop-color:#3E4177"/>
			</linearGradient>
			<path style="fill:url(#SVGID_4_);" d="M1894.54,1068.08c-453.14-25.92-893.02,135.09-1248.94,433.97
				c-75.09,63.05-80.5,177.78-10.34,248.8l7.01,7.09c61.83,62.6,199.92,103.53,314.24,10.49
				c297.92-242.46,561.74-393.25,938.03-380.04c357.72,12.56,669.51,163.5,899.75,396.58c49.34,49.95,207.56,46.33,252.85-6.57
				l-79.73-5.88c50.5-58.99,46.64-156.12-7.52-212.38C2689.59,1279.3,2321.01,1092.48,1894.54,1068.08z"/>
			<linearGradient id="SVGID_5_" gradientUnits="userSpaceOnUse" x1="2671.5908" y1="960.1478" x2="1050.7957" y2="3174.1729">
				<stop  offset="0" style="stop-color:#444B8C"/>
				<stop  offset="0.9964" style="stop-color:#3E4177"/>
			</linearGradient>
			<path style="fill:url(#SVGID_5_);" d="M1894.54,1601.94c-310.05-6.32-606.48,108.52-847.68,310.24
				c-73.69,61.63-78.39,176.02-11.24,244.01l1.15,1.16c58.36,59.09,180.07,95.96,292.82,10.71
				c191.42-144.73,327.3-252.63,564.95-252.92c230.11-0.28,435.03,85.7,592.22,226.82c52.72,47.33,210.91,48.66,257.91-6.25
				l-1.15-17.9c53.24-62.19-31.54-152.64-90.07-207.19C2454.19,1724.88,2191.87,1608,1894.54,1601.94z"/>
			<linearGradient id="SVGID_6_" gradientUnits="userSpaceOnUse" x1="2899.3486" y1="1075.0265" x2="1239.1899" y2="3342.8225">
				<stop  offset="0" style="stop-color:#444B8C"/>
				<stop  offset="0.9964" style="stop-color:#3E4177"/>
			</linearGradient>
			<path style="fill:url(#SVGID_6_);" d="M1418.84,2544.18c54.94,55.62,222.23,58.45,286.03,10.99
				c79.38-59.04,90.28-95.21,189.66-99.05c98.03-3.78,188.11,24.18,262.63,74.92c58.76,40.02,220.26,31.82,268.99-25.1l-84.59-2.35
				c59.27-69.24,49.98-179.85-19.4-231.18c-119.23-88.21-266.01-139.27-427.62-136.61c-165.3,2.72-322.1,61.16-454.43,160.14
				c-79.17,59.21-89.89,178.75-21.98,247.51L1418.84,2544.18z"/>
		</g>
		<g>
			<linearGradient id="SVGID_7_" gradientUnits="userSpaceOnUse" x1="3308.9893" y1="1190.6169" x2="1593.2911" y2="3534.2803">
				<stop  offset="0" style="stop-color:#AA80F9"/>
				<stop  offset="0.9964" style="stop-color:#6165D7"/>
			</linearGradient>
			<path style="fill:url(#SVGID_7_);" d="M2215.11,2956.46c0,124.83-92.08,234.41-207.3,244.92
				c-117.09,10.68-213.41-84.71-213.41-213.21c0-128.5,96.32-238.41,213.41-245.39C2123.04,2735.93,2215.11,2831.64,2215.11,2956.46
				z"/>
			<linearGradient id="SVGID_8_" gradientUnits="userSpaceOnUse" x1="2523.0906" y1="791.4963" x2="942.1585" y2="2951.0679">
				<stop  offset="0" style="stop-color:#AA80F9"/>
				<stop  offset="0.9964" style="stop-color:#6165D7"/>
			</linearGradient>
			<path style="fill:url(#SVGID_8_);" d="M2007.81,1050.18c-453.14-25.92-893.02,135.09-1248.94,433.97
				c-75.09,63.05-80.5,177.78-10.34,248.8l7.01,7.09c61.83,62.6,160.17,67.59,224.99,11.12
				c289.62-252.32,650.99-393.88,1027.28-380.67c357.72,12.56,669.52,163.5,899.75,396.58c49.34,49.95,122.74,46.39,168.03-6.51
				l5.09-5.95c50.5-58.99,46.64-156.12-7.52-212.38C2802.87,1261.41,2434.29,1074.58,2007.81,1050.18z"/>
			<linearGradient id="SVGID_9_" gradientUnits="userSpaceOnUse" x1="2756.5054" y1="921.7211" x2="1136.1068" y2="3135.2041">
				<stop  offset="0" style="stop-color:#AA80F9"/>
				<stop  offset="0.9964" style="stop-color:#6165D7"/>
			</linearGradient>
			<path style="fill:url(#SVGID_9_);" d="M2007.81,1584.05c-310.05-6.32-606.48,108.52-847.68,310.24
				c-73.69,61.62-78.39,176.02-11.24,244.01l1.15,1.16c58.36,59.09,149.84,60.46,212.85,6.38
				c182.11-156.28,407.26-248.3,644.92-248.59c230.11-0.28,435.03,85.7,592.22,226.82c52.72,47.33,127.77,42.78,174.78-12.13
				l0.92-1.07c53.24-62.19,49.54-163.59-8.99-218.14C2567.46,1706.99,2305.14,1590.1,2007.81,1584.05z"/>
			<linearGradient id="SVGID_10_" gradientUnits="userSpaceOnUse" x1="2985.603" y1="1035.4766" x2="1323.5276" y2="3305.8909">
				<stop  offset="0" style="stop-color:#AA80F9"/>
				<stop  offset="0.9964" style="stop-color:#6165D7"/>
			</linearGradient>
			<path style="fill:url(#SVGID_10_);" d="M1532.12,2526.28c54.94,55.62,139.39,58.15,203.19,10.7
				c79.38-59.04,173.12-94.92,272.5-98.75c98.03-3.78,188.11,24.18,262.63,74.92c58.76,40.02,135.04,30.21,183.77-26.71l0.63-0.74
				c59.27-69.24,49.98-179.85-19.4-231.18c-119.23-88.21-266.01-139.27-427.62-136.61c-165.3,2.72-322.1,61.16-454.43,160.14
				c-79.17,59.21-89.89,178.75-21.98,247.51L1532.12,2526.28z"/>
		</g>
		<g>
			
				<linearGradient id="SVGID_11_" gradientUnits="userSpaceOnUse" x1="-1025.2058" y1="791.0246" x2="-807.5544" y2="791.0246" gradientTransform="matrix(1 0 0 1 1965.2019 0)">
				<stop  offset="0" style="stop-color:#FFC444"/>
				<stop  offset="0.9964" style="stop-color:#F36F56"/>
			</linearGradient>
			<path style="fill:url(#SVGID_11_);" d="M1113.93,660.54c-17.79-1.34-17.01,46.39-67.22,86.99
				c-44.88,36.3-77.99,24.43-96.87,56.34c-18.6,31.45-9.81,82.51,17.79,104.78c40.38,32.57,129.92-0.01,168.04-59.31
				C1184.43,773.5,1140.63,662.55,1113.93,660.54z"/>
			
				<linearGradient id="SVGID_12_" gradientUnits="userSpaceOnUse" x1="-1025.2058" y1="791.0246" x2="-807.5544" y2="791.0246" gradientTransform="matrix(1 0 0 1 1965.2019 0)">
				<stop  offset="0" style="stop-color:#FFC444"/>
				<stop  offset="0.9964" style="stop-color:#F36F56"/>
			</linearGradient>
			<path style="fill:url(#SVGID_12_);" d="M1113.93,660.54c-17.79-1.34-17.01,46.39-67.22,86.99
				c-44.88,36.3-77.99,24.43-96.87,56.34c-18.6,31.45-9.81,82.51,17.79,104.78c40.38,32.57,129.92-0.01,168.04-59.31
				C1184.43,773.5,1140.63,662.55,1113.93,660.54z"/>
			
				<linearGradient id="SVGID_13_" gradientUnits="userSpaceOnUse" x1="-217.8329" y1="1313.5916" x2="216.5611" y2="1313.5916" gradientTransform="matrix(1 0 0 1 963.6127 0)">
				<stop  offset="0" style="stop-color:#AA80F9"/>
				<stop  offset="0.9964" style="stop-color:#6165D7"/>
			</linearGradient>
			<path style="fill:url(#SVGID_13_);" d="M1099.97,1070.03c-145.26,35.27-240.95,91.88-296.83,131.92
				c-30.29,21.7-44.27,35.24-51.83,54.97c-43.03,112.43,178.05,282.43,201.61,300.24c10.29-24,20.58-47.99,30.87-71.99
				c-22.84-125.39-60.88-164.72-92.7-176.42c-8.9-3.27-23.85-6.78-23.56-10.99c0.69-9.96,84.66,4.23,164.9-25.13
				c80.02-29.28,160.41-103.36,146.06-152.34C1175.88,1111.34,1164.9,1085.5,1099.97,1070.03z"/>
			<linearGradient id="SVGID_14_" gradientUnits="userSpaceOnUse" x1="1199.1187" y1="1405.5485" x2="678.9568" y2="1114.5323">
				<stop  offset="0" style="stop-color:#311944"/>
				<stop  offset="1" style="stop-color:#A03976"/>
			</linearGradient>
			<path style="fill:url(#SVGID_14_);" d="M1099.97,1070.03c-145.26,35.27-240.95,91.88-296.83,131.92
				c-30.29,21.7-44.27,35.24-51.83,54.97c-43.03,112.43,178.05,282.43,201.61,300.24c10.29-24,20.58-47.99,30.87-71.99
				c-22.84-125.39-60.88-164.72-92.7-176.42c-8.9-3.27-23.85-6.78-23.56-10.99c0.69-9.96,84.66,4.23,164.9-25.13
				c80.02-29.28,160.41-103.36,146.06-152.34C1175.88,1111.34,1164.9,1085.5,1099.97,1070.03z"/>
			
				<linearGradient id="SVGID_15_" gradientUnits="userSpaceOnUse" x1="3108.0637" y1="1337.8282" x2="3126.8398" y2="1675.8041" gradientTransform="matrix(-0.9565 0.2918 0.2918 0.9565 3497.2832 -392.2555)">
				<stop  offset="0" style="stop-color:#444B8C"/>
				<stop  offset="0.9964" style="stop-color:#26264F"/>
			</linearGradient>
			<path style="fill:url(#SVGID_15_);" d="M959.12,1891.84c0,0,13.52,4.82,13.57,15.51c0.05,10.69-13.7,57.8-28.63,74.54
				c-14.93,16.74-16.27-8.23-15.34-24.32c0.92-16.09,4.84-52.09,8.53-59.06C940.93,1891.55,959.12,1891.84,959.12,1891.84z"/>
			
				<linearGradient id="SVGID_16_" gradientUnits="userSpaceOnUse" x1="-217.8326" y1="1329.9351" x2="216.5613" y2="1329.9351" gradientTransform="matrix(1 0 0 1 963.6127 0)">
				<stop  offset="0" style="stop-color:#311944"/>
				<stop  offset="1" style="stop-color:#A03976"/>
			</linearGradient>
			<path style="opacity:0.3;fill:url(#SVGID_16_);" d="M915.7,1234.41c-26.39-0.52-88.23-5.44-104.7,25.13
				c-13.74,25.51,10.33,64.17,25.13,87.95c40.24,64.65,79.29,71.26,106.8,110.98c10.65,15.38,20.29,36.85,23.36,67.53
				c5.84-13.61,11.68-27.22,17.51-40.83c-22.84-125.39-60.88-164.72-92.7-176.42c-8.9-3.27-23.85-6.78-23.56-10.99
				c0.69-9.96,84.66,4.23,164.9-25.13c72.94-26.69,145.95-90.56,147.46-138.75C1064.4,1216.72,977.47,1235.62,915.7,1234.41z"/>
			
				<linearGradient id="SVGID_17_" gradientUnits="userSpaceOnUse" x1="3102.8896" y1="1516.7296" x2="3092.9146" y2="1060.3892" gradientTransform="matrix(-0.9565 0.2918 0.2918 0.9565 3497.2832 -392.2555)">
				<stop  offset="0" style="stop-color:#FFC444"/>
				<stop  offset="0.9964" style="stop-color:#F36F56"/>
			</linearGradient>
			<path style="fill:url(#SVGID_17_);" d="M966.93,1846.4c-0.8,16.48-2.2,30.26-3.46,40.49c-2.79,22.64-5.36,31.59-8.87,39.75
				c-3.07,7.11-10.73,22.61-14.38,21.54c-3.72-1.09,0.11-18.27,3-66.05c0.42-6.94,1.7-29.01,1.7-29.01l0,0L966.93,1846.4z"/>
			<linearGradient id="SVGID_18_" gradientUnits="userSpaceOnUse" x1="831.6793" y1="1724.3099" x2="1457.2499" y2="1046.0365">
				<stop  offset="0" style="stop-color:#311944"/>
				<stop  offset="1" style="stop-color:#A03976"/>
			</linearGradient>
			<path style="fill:url(#SVGID_18_);" d="M1183.73,1079.45c-83.7,50.46-138.03,107.84-169.62,146.58
				c-37.29,45.74-94.01,115.31-114.55,219.05c-10.95,55.3-5.56,104.9,5.66,201.84c11.14,96.29,27.12,174.68,39.61,228.22
				c6.43,2.58,12.87,5.17,19.31,7.75c17.24-31.67,39.79-81.81,47.88-145.92c13.23-104.9-26.02-138.23-7.18-212.62
				c16.32-64.44,63.59-103.96,158.14-182.98c77.69-64.93,149.32-103.45,175.91-184.44c4.52-13.75,8.35-30.62,0.99-46.07
				C1324.02,1077.57,1263.33,1065.95,1183.73,1079.45z"/>
			
				<linearGradient id="SVGID_19_" gradientUnits="userSpaceOnUse" x1="975.2551" y1="420.5258" x2="460.1236" y2="851.8968" gradientTransform="matrix(0.9987 -0.0509 0.0509 0.9987 869.4207 27.2223)">
				<stop  offset="0" style="stop-color:#444B8C"/>
				<stop  offset="0.9964" style="stop-color:#26264F"/>
			</linearGradient>
			<path style="fill:url(#SVGID_19_);" d="M1255.18,671.62c-21.73-4.67-57.45-3.74-91.51-30.57c-10.25-8.07-46.58-36.68-42.17-77.61
				c3.88-36.03,38.03-55.4,42.22-57.7c24.18-13.31,48.28-10.35,75.01-6.69c34.66,4.74,46.17,14.21,70.26,20.7
				c59.58,16.06,79.74-17.46,139.73-14.63c76.68,3.61,83.31,60.24,147.82,61.66c72.42,1.59,86.3-69.29,157.8-81.3
				c99.25-16.67,249.42,90.17,246.39,213.34c-1.75,71.14-54.72,152.66-122.38,177.14c-39.44,14.27-81.99,9.74-94.14,35.38
				c-8.64,18.25,10.79,32.31,8.95,64.11c-2.36,41-37.66,69.77-43.36,74.41c-52.91,43.13-171.53,21.34-252.54-39.68
				C1351.19,900.14,1373.3,697.04,1255.18,671.62z"/>
			
				<linearGradient id="SVGID_20_" gradientUnits="userSpaceOnUse" x1="-584.2648" y1="1057.9091" x2="-165.9218" y2="681.7836" gradientTransform="matrix(-1 0 0 1 860.664 0)">
				<stop  offset="0" style="stop-color:#FFC444"/>
				<stop  offset="0.9964" style="stop-color:#F36F56"/>
			</linearGradient>
			<path style="fill:url(#SVGID_20_);" d="M1418.34,651.91c-49.2-6.06-105.95-10.68-169.01-11.53
				c-133.25-1.81-152.33,15.09-157.21,27.59c-9.1,23.32,6.49,35-2.36,75.66c-5.29,24.31-0.29,35.39-10.52,61.5
				c-9.97,25.45-2.15,39.14,6.67,98.83c11.27,76.32,16.47,115.11-4.88,145.88c-14.84,21.38-31.44,23.19-29.86,33.34
				c3.37,21.64,78.18,9.7,172.88,51.24c27.42,12.02,52.65,26.84,73.81,39.26c49.55,29.09,58.72,40.22,81.67,53.4
				c72.57,41.69,181.58,45.7,238.72-4.71c21.3-18.8,36.83-46.42,29.84-56.54c-9.51-13.77-52.05,17.51-91.09-1.57
				c-25.86-12.64-20.95-33.09-50.85-57.18c-35.98-29-61-13.8-85.49-32.67c-38.2-29.43-20.82-99.89-10.1-218.03
				C1415,807.47,1419.45,737.63,1418.34,651.91z"/>
			
				<linearGradient id="SVGID_21_" gradientUnits="userSpaceOnUse" x1="-660.9408" y1="1691.8143" x2="-783.4446" y2="1844.1588" gradientTransform="matrix(0.2558 0.9667 -0.9667 0.2558 3201.1848 986.3447)">
				<stop  offset="0" style="stop-color:#311944"/>
				<stop  offset="1" style="stop-color:#A03976"/>
			</linearGradient>
			<path style="fill:url(#SVGID_21_);" d="M1274.57,726.62l-14.78-2.52c0,0-24.87-61.58-49.09-44.2
				c-24.23,17.38-6.44,20.61,1.69,22.63c8.13,2.02,25.28,21.2,28.53,29.75c3.25,8.55,28.96,16.94,28.96,16.94L1274.57,726.62z"/>
			
				<linearGradient id="SVGID_22_" gradientUnits="userSpaceOnUse" x1="-379.3406" y1="561.2994" x2="-388.7224" y2="634.6478" gradientTransform="matrix(-1 0 0 1 860.664 0)">
				<stop  offset="0" style="stop-color:#311944"/>
				<stop  offset="1" style="stop-color:#A03976"/>
			</linearGradient>
			<path style="fill:url(#SVGID_22_);" d="M1274.13,624.47c18.17,11.27,47.55,26.01,50.79,30.01c3.24,3.99-89,19.79-146.39-9.17
				c0,0-8.9-4.94,25.7-11.86c7.37-1.47,5.93-15.82,4.94-30.64l6.92-12.85C1216.09,589.95,1255.96,613.19,1274.13,624.47z"/>
			
				<linearGradient id="SVGID_23_" gradientUnits="userSpaceOnUse" x1="-334.935" y1="544.9085" x2="-334.935" y2="558.5547" gradientTransform="matrix(-1 0 0 1 860.664 0)">
				<stop  offset="0" style="stop-color:#311944"/>
				<stop  offset="1" style="stop-color:#A03976"/>
			</linearGradient>
			<path style="fill:url(#SVGID_23_);" d="M1219.49,590.56c0,0,4.62,19.58-12.63,29.26c-15.44,8.67-41.57-26.86-36.69-40.07
				c1.63-4.4,7.44-10.07,13.52-11.97c4.27-1.34,20.45-0.82,27.38,12.8c1.82-3.98,5.06-6.07,7.25-5.41c2.77,0.83,3.18,5.87,3.27,7.01
				C1221.9,586.14,1220.31,589.21,1219.49,590.56z"/>
			<g>
				<g>
					
						<linearGradient id="SVGID_24_" gradientUnits="userSpaceOnUse" x1="1603.0515" y1="1443.033" x2="1577.9714" y2="1407.4193" gradientTransform="matrix(-0.2291 -0.9734 0.9734 -0.2291 114.2971 2554.8499)">
						<stop  offset="0" style="stop-color:#AA80F9"/>
						<stop  offset="0.9964" style="stop-color:#6165D7"/>
					</linearGradient>
					<path style="fill:url(#SVGID_24_);" d="M1113.56,737.84l75.53,3.81c2.89,0.15,6.35-3.44,5.64-5.87l-35.28-114.17
						c-0.56-1.9-2.49-3.17-4.64-3.05l-72.44,1.59c-2.36,0.14-3.65,4.79-3.01,7.08l30.01,107.36
						C1109.87,736.35,1111.65,737.74,1113.56,737.84z"/>
					
						<linearGradient id="SVGID_25_" gradientUnits="userSpaceOnUse" x1="1555.5883" y1="1505.059" x2="1615.3092" y2="1383.751" gradientTransform="matrix(-0.2291 -0.9734 0.9734 -0.2291 114.2971 2554.8499)">
						<stop  offset="0" style="stop-color:#AA80F9"/>
						<stop  offset="0.9964" style="stop-color:#6165D7"/>
					</linearGradient>
					<path style="fill:url(#SVGID_25_);" d="M1111.73,735.09l75.95,3.56c2.91,0.14,4.92-1.95,4.21-4.39l-33.93-116.15
						c-0.56-1.9-2.5-3.17-4.66-3.04l-72.54,4.29c-2.37,0.14-3.97,2.42-3.33,4.73l30.09,107.74
						C1108.02,733.61,1109.81,735,1111.73,735.09z"/>
				</g>
				
					<linearGradient id="SVGID_26_" gradientUnits="userSpaceOnUse" x1="1520.7699" y1="1425.1757" x2="1651.0183" y2="1425.1757" gradientTransform="matrix(-0.2291 -0.9734 0.9734 -0.2291 114.2971 2554.8499)">
					<stop  offset="0" style="stop-color:#AA80F9"/>
					<stop  offset="0.9964" style="stop-color:#6165D7"/>
				</linearGradient>
				<path style="fill:url(#SVGID_26_);" d="M1150.39,666.79c-2.25,10.56-11.75,8.29-19.5,21.07c-9.84,16.23-0.41,30.56-9.43,36.51
					c-2.75,1.81-7.4,2.9-15.77,0.71l2.15,7.71c0.5,1.78,2.29,3.16,4.21,3.25l75.95,3.56c2.91,0.14,4.92-1.95,4.21-4.39
					l-33.93-116.15c-0.56-1.9-2.5-3.17-4.66-3.04l-10.9,0.64c-1.28,3.99-2.2,8.6-2.1,13.7
					C1140.96,647.89,1153.03,654.42,1150.39,666.79z"/>
			</g>
			
				<linearGradient id="SVGID_27_" gradientUnits="userSpaceOnUse" x1="-570.5214" y1="1073.1948" x2="-152.1768" y2="697.0679" gradientTransform="matrix(-1 0 0 1 860.664 0)">
				<stop  offset="0" style="stop-color:#FFC444"/>
				<stop  offset="0.9964" style="stop-color:#F36F56"/>
			</linearGradient>
			<path style="opacity:0.3;fill:url(#SVGID_27_);" d="M1186.99,1066.03c27.44,11.37,31.14,35.95,69.08,49.89
				c36.19,13.3,48.34-3.37,84.44,7.68c54.22,16.59,74.95,68.9,83.16,63.97c7.52-4.52,0.31-54.57-34.54-86.99
				c-40.02-37.24-83.13-20.19-108.74-58.85c-9.97-15.04-17.65-39.07-8.96-57.57c11.78-25.06,42.55-16.37,58.85-37.1
				c29.29-37.24-39.26-104.42-20.47-161.2c7.5-22.66,31.37-51.06,108.36-70.08c-1.04,56.92-4.32,104.48-7.6,140.6
				c-10.72,118.14-28.1,188.61,10.1,218.03c24.49,18.87,49.51,3.67,85.49,32.67c29.9,24.09,24.99,44.54,50.85,57.18
				c39.04,19.08,81.58-12.2,91.09,1.57c6.99,10.11-8.54,37.74-29.84,56.54c-57.14,50.41-166.15,46.4-238.72,4.71
				c-22.95-13.18-32.11-24.31-81.67-53.4c-21.16-12.43-46.4-27.24-73.81-39.26c-66.46-29.15-123.08-31.97-152.13-38.53
				C1129.58,1057.43,1164.72,1056.79,1186.99,1066.03z"/>
			
				<linearGradient id="SVGID_28_" gradientUnits="userSpaceOnUse" x1="-137.7494" y1="750.0104" x2="-289.9909" y2="966.2188" gradientTransform="matrix(-1 0 0 1 860.664 0)">
				<stop  offset="0" style="stop-color:#FFC444"/>
				<stop  offset="0.9964" style="stop-color:#F36F56"/>
			</linearGradient>
			<path style="fill:url(#SVGID_28_);" d="M1097.12,686.24c20.18,10.98-6.55,129.68-44.48,188.8
				c-11.16,17.39-48.14,44.28-78.09,36.57c-23.03-5.93-35.5-55.9-30.64-87.98c4.41-29.16,37.27-50.48,79.08-87.98
				C1064.06,698.82,1085.28,679.79,1097.12,686.24z"/>
			
				<linearGradient id="SVGID_29_" gradientUnits="userSpaceOnUse" x1="-209.0639" y1="718.351" x2="-254.2669" y2="645.0029" gradientTransform="matrix(-1 0 0 1 860.664 0)">
				<stop  offset="0" style="stop-color:#311944"/>
				<stop  offset="1" style="stop-color:#A03976"/>
			</linearGradient>
			<path style="fill:url(#SVGID_29_);" d="M1086.25,689.45l-4.62-14.38c-1.31-4.06,0.41-8.5,4.15-10.55
				c5.18-2.84,12.61-5.37,18.26-1.02c9.64,7.41-6.67,45.96-10.38,43C1089.96,703.54,1086.25,689.45,1086.25,689.45z"/>
			
				<linearGradient id="SVGID_30_" gradientUnits="userSpaceOnUse" x1="-545.092" y1="928.0107" x2="-562.7998" y2="615.1727" gradientTransform="matrix(-1 0 0 1 860.664 0)">
				<stop  offset="0" style="stop-color:#FFC444"/>
				<stop  offset="0.9964" style="stop-color:#F36F56"/>
			</linearGradient>
			<path style="fill:url(#SVGID_30_);" d="M1325.16,665.59c12.04-22.42,59.76-22.89,90.83-15.35
				c85.63,20.76,173.34,133.38,140.73,231.56c-1.99,6-24.89,71.93-78.04,84.44c-68.82,16.19-167.92-62.02-216.21-211.09
				c4.69-11.09,9.38-22.17,14.07-33.26c18.19,18.94,45.81,46.3,81.88,76.76c44.08,37.23,78.31,60.12,79.32,58.85
				c1-1.26-33.23-23.01-65.25-66.53c-20.67-28.09-29.6-50.55-35.82-66.53C1324.59,693.4,1318.55,677.88,1325.16,665.59z"/>
		</g>
		<g>
			
				<linearGradient id="SVGID_31_" gradientUnits="userSpaceOnUse" x1="-1640.0858" y1="2520.4226" x2="-1234.3013" y2="2520.4226" gradientTransform="matrix(-1 0 0 1 1264.0297 0)">
				<stop  offset="0" style="stop-color:#444B8C"/>
				<stop  offset="0.9964" style="stop-color:#3E4177"/>
			</linearGradient>
			<path style="fill:url(#SVGID_31_);" d="M2557.65,2186.36c74.83-36.55,220.79,95.83,291.82,222.62
				c28.31,50.53,61.54,109.85,53.39,180.37c-14.46,125.03-153.15,234.7-344.05,271.31c-5.37-19.19-10.75-38.39-16.12-57.58
				c20.87-21.74,52.09-53.12,91.98-89.08c61.28-55.24,73.87-58.92,76.81-76.36c9.63-57.12-137.27-104.94-189.52-205.38
				C2477.04,2345.91,2500.17,2214.43,2557.65,2186.36z"/>
			
				<linearGradient id="SVGID_32_" gradientUnits="userSpaceOnUse" x1="-1535.5154" y1="3221.7271" x2="-1384.0575" y2="3221.7271" gradientTransform="matrix(-1 0 0 1 1264.0297 0)">
				<stop  offset="0" style="stop-color:#311944"/>
				<stop  offset="1" style="stop-color:#6B3976"/>
			</linearGradient>
			<path style="fill:url(#SVGID_32_);" d="M2655.97,3191.25c0,0-12.29,30.31-6.18,42.18c6.11,11.87,35.59,4.36,77.16,10.72
				c41.57,6.35,70.25,16.07,72.55,7.46c2.3-8.61-83.84-54.07-90.72-60.35C2701.89,3184.96,2655.97,3191.25,2655.97,3191.25z"/>
			
				<linearGradient id="SVGID_33_" gradientUnits="userSpaceOnUse" x1="-1363.1888" y1="2956.3191" x2="-1416.163" y2="3287.9814" gradientTransform="matrix(-1 0 0 1 1264.0297 0)">
				<stop  offset="0" style="stop-color:#311944"/>
				<stop  offset="1" style="stop-color:#A03976"/>
			</linearGradient>
			<path style="fill:url(#SVGID_33_);" d="M2666.98,3145.94l29.07,45.31c0,0-13.4,13.22-36.16,8.3l-31.98-42.92L2666.98,3145.94z"/>
			
				<linearGradient id="SVGID_34_" gradientUnits="userSpaceOnUse" x1="-1640.0853" y1="2520.4519" x2="-1234.3032" y2="2520.4519" gradientTransform="matrix(-1 0 0 1 1264.0297 0)">
				<stop  offset="0" style="stop-color:#444B8C"/>
				<stop  offset="0.9964" style="stop-color:#3E4177"/>
			</linearGradient>
			<path style="opacity:0.3;fill:url(#SVGID_34_);" d="M2521.96,2432.26c-44.92-86.35-21.8-217.83,35.69-245.9
				c15.07-7.36,33.06-7.77,52.72-2.85c-10.35,29.89-8.3,51.49-3.19,66.8c22.78,68.26,121.25,60.5,152.01,138.19
				c19.45,49.12-11.48,73.49,16.12,112.86c28.6,40.8,75.38,33.96,89.83,73.7c10.77,29.61-10.46,46.45-2.3,71.4
				c2.27,6.95,6.75,13.93,14.29,20.56c-50.59,90.99-168.32,164.87-318.31,193.64c-5.37-19.19-10.75-38.39-16.12-57.58
				c20.87-21.74,52.09-53.12,91.98-89.08c61.28-55.24,73.87-58.92,76.81-76.36C2721.1,2580.51,2574.21,2532.7,2521.96,2432.26z"/>
			
				<linearGradient id="SVGID_35_" gradientUnits="userSpaceOnUse" x1="-1415.2268" y1="2694.7139" x2="-1068.2609" y2="2694.7139" gradientTransform="matrix(-1 0 0 1 1264.0297 0)">
				<stop  offset="0" style="stop-color:#444B8C"/>
				<stop  offset="0.9964" style="stop-color:#3E4177"/>
			</linearGradient>
			<path style="fill:url(#SVGID_35_);" d="M2608.72,2213.46c-3.24,130.87-1.42,272.37,8.06,423
				c12.1,192.34,34.77,369.01,62.48,527.77c-12.31,3.92-24.62,7.83-36.93,11.75c-126.61-123.36-164.5-231.88-174.87-309.94
				c-7.33-55.18,3.76-59.92-6.13-128.98c-18.84-131.52-68.01-176.56-102.53-299.68c-12.96-46.21-27.38-116.02-26.46-207.03
				C2424.46,2224.72,2516.59,2219.09,2608.72,2213.46z"/>
			<path style="fill:#FFFFFF;" d="M2699.41,1979.05c-2.3,0.53-12.28,3.85-16.23,45.54c-9.52,100.54,42.83,141.25,29.94,195.77
				c-12.37,52.34-75.47,77.73-140.42,103.86c-43.4,17.47-177.65,71.49-255.72,10.74c-32.86-25.56-36.45-56.43-59.89-169.88
				c-59.56-288.26-82.63-313.02-57.58-375.42c43.01-107.16,158.19-151.54,177.35-158.92c204.32-78.73,445.61,65.97,540.95,232.2
				c12.55,21.89,87.53,152.61,34.85,214.62c-31.87,37.51-105.11,43.57-153.44,17.99
				C2734.65,2061.38,2720.93,1974.12,2699.41,1979.05z"/>
			
				<linearGradient id="SVGID_36_" gradientUnits="userSpaceOnUse" x1="-1595.4945" y1="1966.7627" x2="-1551.7334" y2="2108.7942" gradientTransform="matrix(-1 0 0 1 1264.0297 0)">
				<stop  offset="3.597120e-03" style="stop-color:#E38DDD"/>
				<stop  offset="1" style="stop-color:#9571F6"/>
			</linearGradient>
			<path style="opacity:0.3;fill:url(#SVGID_36_);" d="M2922.73,2055.3c0.64,0,1.29-0.14,1.91-0.42c2.31-1.05,3.33-3.78,2.28-6.1
				c-1.75-3.83-43.93-94.35-141.39-130.07c-2.39-0.89-5.03,0.35-5.91,2.74c-0.88,2.39,0.35,5.03,2.74,5.91
				c93.75,34.36,135.76,124.34,136.17,125.25C2919.3,2054.3,2920.98,2055.3,2922.73,2055.3z"/>
			
				<linearGradient id="SVGID_37_" gradientUnits="userSpaceOnUse" x1="-1047.6038" y1="1568.1216" x2="-1299.4222" y2="2464.8416" gradientTransform="matrix(-1 0 0 1 1264.0297 0)">
				<stop  offset="3.597120e-03" style="stop-color:#E38DDD"/>
				<stop  offset="1" style="stop-color:#9571F6"/>
			</linearGradient>
			<path style="opacity:0.3;fill:url(#SVGID_37_);" d="M2333.1,1752.81c12.9,35.11-25.8,65.53-9.21,103.64
				c23.77,54.63,118.24,26.59,152.01,80.61c40.03,64.03-51.64,169.04-13.82,204.99c17.23,16.38,37.14-4.6,87.52,6.91
				c71.75,16.39,93.31,73.09,126.68,64.49c10.5-2.7,23.22-12.23,33.92-41.56c4.67,16.27,6.89,31.72,2.93,48.47
				c-12.37,52.34-75.47,77.73-140.42,103.86c-43.4,17.47-177.65,71.49-255.72,10.74c-32.86-25.56-36.45-56.43-59.89-169.88
				c-59.56-288.26-82.63-313.02-57.58-375.42c13.66-34.03,34.6-61.7,57.42-83.89C2306.14,1716.64,2326.35,1734.44,2333.1,1752.81z"
				/>
			<path style="fill:#FFFFFF;" d="M2456.61,1973.05c-5.51,5.01-61.41,54.25-128.65,37.44c-58.56-14.64-94.51-71.58-100.81-119.48
				c-14.98-113.93,133.46-209.57,115.16-232.62c-10.9-13.73-69.34,12.86-108.25,36.85c-40.39,24.9-149.54,92.18-172.81,224.22
				c-1.98,11.22-27.64,168.64,62.22,233.65c83.09,60.11,245.85,27.41,356.07-114.78C2471.9,2016.57,2464.26,1994.81,2456.61,1973.05
				z"/>
			<linearGradient id="SVGID_38_" gradientUnits="userSpaceOnUse" x1="2585.1499" y1="2010.2812" x2="2595.4539" y2="1896.9353">
				<stop  offset="0" style="stop-color:#444B8C"/>
				<stop  offset="0.9964" style="stop-color:#3E4177"/>
			</linearGradient>
			<path style="fill:url(#SVGID_38_);" d="M2817.01,1868.98l-66.55,212.6c-2.18,6.97-8.53,11.81-15.82,12.06l-358.15,12.65
				c-11.22,0.4-19.82-9.88-17.44-20.86l46.31-213.47c1.67-7.72,8.39-13.31,16.29-13.56l378.39-11.78
				C2811.88,1846.26,2820.54,1857.68,2817.01,1868.98z"/>
			<linearGradient id="SVGID_39_" gradientUnits="userSpaceOnUse" x1="2586.0261" y1="1930.0281" x2="2603.1997" y2="2080.2976">
				<stop  offset="0" style="stop-color:#444B8C"/>
				<stop  offset="0.9964" style="stop-color:#3E4177"/>
			</linearGradient>
			<path style="fill:url(#SVGID_39_);" d="M2813.81,1875.97l-64.59,206.33c-2.12,6.77-8.27,11.46-15.36,11.71l-347.6,12.28
				c-10.89,0.39-19.23-9.59-16.92-20.24l44.95-207.18c1.63-7.5,8.15-12.92,15.81-13.16l367.25-11.43
				C2808.84,1853.92,2817.25,1865,2813.81,1875.97z"/>
			
				<linearGradient id="SVGID_40_" gradientUnits="userSpaceOnUse" x1="-1129.4761" y1="2175.449" x2="-1306.0553" y2="1985.8185" gradientTransform="matrix(-1 0 0 1 1264.0297 0)">
				<stop  offset="0" style="stop-color:#444B8C"/>
				<stop  offset="0.9964" style="stop-color:#3E4177"/>
			</linearGradient>
			<path style="opacity:0.3;fill:url(#SVGID_40_);" d="M2369.34,2086.05l42.9-197.76c7.28,17.21,16.67,25.91,25.65,30.35
				c25.87,12.78,46.01-10.25,102.49-8.06c21.6,0.84,65.76,2.54,93.28,31.09c25.86,26.83,14.87,54.4,31.09,92.13
				c8.19,19.05,23.39,40.64,52.69,60.79l-331.19,11.7C2375.37,2106.68,2367.03,2096.7,2369.34,2086.05z"/>
			
				<linearGradient id="SVGID_41_" gradientUnits="userSpaceOnUse" x1="-1268.6282" y1="1446.0984" x2="-1297.8022" y2="1694.8461" gradientTransform="matrix(-1 0 0 1 1264.0297 0)">
				<stop  offset="0" style="stop-color:#311944"/>
				<stop  offset="1" style="stop-color:#A03976"/>
			</linearGradient>
			<path style="fill:url(#SVGID_41_);" d="M2587.48,1610.26c-3.81,13.36,4.23,27.25,17.74,30.51c16.36,3.95,36.29,9.41,44.9,14.33
				c15.8,9.04-48.12-1.4-106.92-2.78c-36.71-0.86-64.13-4.98-79.56-7.96c-4.14-0.8-4.46-6.58-0.45-7.88
				c14.69-4.78,38.58-11.82,58.77-14.35c24.99-3.14,51.79-58.29,51.79-58.29l21.42,19.46L2587.48,1610.26z"/>
			
				<linearGradient id="SVGID_42_" gradientUnits="userSpaceOnUse" x1="-1539.8826" y1="1942.6366" x2="-1469.6803" y2="1942.6366" gradientTransform="matrix(-1 0 0 1 1264.0297 0)">
				<stop  offset="0" style="stop-color:#311944"/>
				<stop  offset="1" style="stop-color:#A03976"/>
			</linearGradient>
			<path style="fill:url(#SVGID_42_);" d="M2800.22,1936.74l-4.06-6.65c-3.59-13.8-16.86-22.81-31.01-21.07l-21.36,2.63
				c-6.68,0.82-11.2,7.18-9.83,13.77c1.99,9.53,7.1,20.94,20.22,20.05c22.29-1.5,36.54,30.98,36.54,30.98l8.55-12.05
				C2805.1,1956.21,2805.47,1945.32,2800.22,1936.74z"/>
			
				<linearGradient id="SVGID_43_" gradientUnits="userSpaceOnUse" x1="-1916.4028" y1="593.9473" x2="-1984.7192" y2="420.436" gradientTransform="matrix(-0.8789 -0.477 -0.477 0.8789 1097.9517 210.4266)">
				<stop  offset="0" style="stop-color:#311944"/>
				<stop  offset="1" style="stop-color:#6B3976"/>
			</linearGradient>
			<path style="fill:url(#SVGID_43_);" d="M2635.21,1581.99c18.47-2.74,39.16-18.27,38.76-31.1c-0.55-17.63-40.86-27.29-61.22-32.17
				c-20.42-4.89-29.08-3.12-34.92,1.33c-5.97,4.55-9.89,12.68-11.18,19.7c-0.7,3.82-0.74,9.09-0.08,19.57
				c0.58,9.31,0.41,8.9,0.65,11.65c0.58,6.6,2.38,18.21,8.82,34.31c2.68-2.94,6.23-6.45,10.71-9.91c1.72-1.33,8.55-6.49,16.3-9.61
				C2616.38,1580.4,2624,1583.66,2635.21,1581.99z"/>
			
				<linearGradient id="SVGID_44_" gradientUnits="userSpaceOnUse" x1="-1295.002" y1="1479.7197" x2="-1322.6406" y2="1548.8163" gradientTransform="matrix(-1 0 0 1 1264.0297 0)">
				<stop  offset="0" style="stop-color:#311944"/>
				<stop  offset="1" style="stop-color:#A03976"/>
			</linearGradient>
			<path style="fill:url(#SVGID_44_);" d="M2566.22,1587.35c0,0,1.2,25.73,25.44,37.03c21.71,10.11,50.52-35.21,42.6-52.52
				c-2.64-5.77-10.83-12.05-19.22-14c-4.96-1.15-7.39-0.16-15.45-2.19c-7.43-1.88-8.88-3.61-11.75-3.03
				c-3.59,0.72-8.17,4.81-11.59,20.8c-1.78-6.24-5.73-10.42-10.01-10.68c-0.68-0.04-2.66,0.15-4.28,1.19
				C2556.08,1567.71,2557.23,1577.25,2566.22,1587.35z"/>
		</g>
	</g>
</g>
</svg>
