<?xml version="1.0" encoding="utf-8"?>
<!-- Generator: Adobe Illustrator 24.3.0, SVG Export Plug-In . SVG Version: 6.00 Build 0)  -->
<svg version="1.1" xmlns="http://www.w3.org/2000/svg" xmlns:xlink="http://www.w3.org/1999/xlink" x="0px" y="0px"
	 viewBox="0 0 2475 1650" style="enable-background:new 0 0 2475 1650;" xml:space="preserve">
<g id="Background">
	<rect style="fill:#FFFFFF;" width="2475" height="1650"/>
</g>
<g id="Illustration">
	<g>
		
			<linearGradient id="SVGID_1_" gradientUnits="userSpaceOnUse" x1="-1529.5028" y1="833.1271" x2="560.1034" y2="833.1271" gradientTransform="matrix(-1 0 0 1 774 0)">
			<stop  offset="0" style="stop-color:#DAE3FE"/>
			<stop  offset="1" style="stop-color:#E9EFFD"/>
		</linearGradient>
		<path style="fill:url(#SVGID_1_);" d="M1743.3,198.35c33.44,10.27,83.45,56.93,127.31,131.36c53.95,91.56,86,99.58,162.31,54.47
			c76.32-45.11,165.97-14.8,230.85,105.31c64.88,120.11-48.78,213.49-154.12,359.81c-105.35,146.32,104.99,108.48,173.13,279.38
			c68.14,170.9-27.96,362.62-344.14,360.34c-316.62-2.28-846.16-18.34-846.16-18.34s-567.44,56.79-712.57-28.25
			c-182.56-106.97,130.44-146.64-19.89-213.38c-150.33-66.74-148.2-129.07-145.39-247.94c3.21-135.6,127.38-156.46,187.42-202.59
			c60.04-46.13,96.15-96.21,10.31-178.31c-85.84-82.1-151.56-137.41-108.16-246.19c62.26-156.06,213.36-176.19,379.35-110.05
			c166,66.15,194.18,150.85,468.15,101.81C1304.49,318.45,1458.52,110.93,1743.3,198.35z"/>
		<g style="opacity:0.9;">
			<path style="fill:#91B3FA;" d="M293.7,194.91c-6.92,136.37-22.25,927.33,550.2,969.6c0,0,113.94-537.16-536.33-980.99
				C301.88,179.63,294.15,186,293.7,194.91z"/>
			<path style="opacity:0.45;fill:#FFFFFF;" d="M353.98,296.9c10.8,37.19,22.29,74.22,34.06,111.13
				c11.79,36.91,23.95,73.7,36.5,110.36c25.06,73.33,51.7,146.12,80.23,218.14c14.36,35.97,29.18,71.76,44.64,107.27
				c15.58,35.45,31.78,70.62,48.83,105.37c17.2,34.66,35.34,68.86,54.9,102.2c19.6,33.29,40.58,65.84,64.48,96.06
				c1.3,1.63,1.02,4.01-0.61,5.3c-1.63,1.3-4.01,1.02-5.3-0.61l-0.02-0.02c-24.07-30.73-45.03-63.62-64.59-97.19
				c-19.51-33.62-37.56-68.04-54.65-102.89c-16.94-34.93-33.02-70.26-48.46-105.86c-15.32-35.65-29.99-71.56-44.21-107.65
				c-28.24-72.26-54.56-145.24-79.29-218.74c-12.38-36.75-24.38-73.62-36.01-110.61c-11.61-37-22.92-74.08-33.57-111.39
				c-0.24-0.85,0.25-1.73,1.1-1.98C352.85,295.56,353.74,296.05,353.98,296.9z"/>
		</g>
		<g>
			<path style="fill:#BDD0FB;" d="M174.67,745.23c-1.14-7.17,8.11-11.1,12.46-5.3c42.08,56.13,157.02,199.86,269.93,256.01
				c183.86,91.42,358.74,287.8,322.17,438.79C779.24,1434.73,298.63,1526.05,174.67,745.23z"/>
			<path style="fill:#DCE5FE;" d="M224.49,829.32c0.77,1.4,1.85,3.16,2.82,4.78l3.05,4.92l6.22,9.79l12.64,19.47
				c8.53,12.92,17.21,25.73,26.02,38.46c17.56,25.49,35.53,50.69,54.02,75.5c37.09,49.53,75.43,98.14,116.32,144.54
				c20.54,23.1,41.16,46.14,62.73,68.28c21.57,22.13,43.65,43.76,66.54,64.5c45.62,41.64,94.41,79.91,147.09,112.37
				c0.72,0.43,0.95,1.37,0.52,2.08c-0.42,0.7-1.33,0.93-2.03,0.54c-27.18-15.07-53.2-32.19-78.44-50.34
				c-25.1-18.37-49.1-38.18-72.56-58.59c-46.44-41.37-89.92-85.97-130.74-132.81c-20.45-23.39-40.13-47.43-59.45-71.74
				c-19.31-24.32-38.08-49.06-56.12-74.33c-18.08-25.23-35.79-50.73-52.78-76.71c-8.46-13.01-16.81-26.09-24.99-39.28
				c-4.07-6.61-8.13-13.22-12.1-19.89l-5.87-10.06l-2.88-5.07c-0.94-1.75-1.88-3.3-2.85-5.36c-0.36-0.75-0.04-1.65,0.71-2
				c0.72-0.34,1.58-0.06,1.96,0.63L224.49,829.32z"/>
		</g>
		<g>
			<path style="fill:#91B3FA;" d="M2140.14,213.15c27.92,100.26,166.55,690.38-363.83,919.94c0,0-191.28-365,349.03-923.72
				C2130.07,204.48,2138.32,206.6,2140.14,213.15z"/>
			<path style="fill:#DCE5FE;" d="M2102.63,310.74c-4.29,32.99-9.26,65.86-14.51,98.69c-5.27,32.83-10.92,65.6-16.94,98.29
				c-12.06,65.4-25.58,130.54-41.1,195.23c-15.57,64.67-33.03,128.94-53.98,192.15c-10.37,31.63-21.9,62.91-34.61,93.72
				c-12.76,30.79-26.75,61.13-43.13,90.29c-0.97,1.72-3.15,2.33-4.87,1.37c-1.72-0.97-2.33-3.15-1.37-4.87l0.01-0.02l0.01-0.01
				c16.34-28.73,30.39-58.77,43.23-89.31c12.79-30.56,24.43-61.64,34.93-93.11c21.2-62.88,38.96-126.93,54.83-191.41
				c15.83-64.5,29.67-129.5,42.05-194.77c6.19-32.64,12-65.35,17.44-98.12c5.42-32.77,10.55-65.61,15.01-98.51l0-0.01
				c0.11-0.83,0.88-1.41,1.71-1.3C2102.15,309.16,2102.73,309.91,2102.63,310.74z"/>
		</g>
		<g>
			<path style="fill:#BDD0FB;" d="M1821.13,1465.19c0,0-8.89-113.73,93.98-239.96c95.44-117.12,331.58-389.58,378.09-532.08
				c2.06-6.31,11.22-5.42,11.94,1.18c7.76,70.8,13.26,249.67-91.68,438.44C2078.14,1376.21,1821.13,1465.19,1821.13,1465.19z"/>
			<path style="fill:#DCE5FE;" d="M2264.44,824.15c-0.48,15.75-2.92,31.39-6.21,46.8c-0.4,1.93-0.76,3.87-1.2,5.79l-1.41,5.74
				l-2.83,11.49l-3.31,11.36c-1.14,3.78-2.12,7.61-3.48,11.31c-9.93,29.95-22.3,59.13-37.16,87c-3.43,7.12-7.59,13.84-11.49,20.71
				l-5.92,10.26c-1.01,1.7-1.92,3.45-3.01,5.1l-3.21,4.98l-12.83,19.92c-2.07,3.37-4.48,6.5-6.76,9.72l-6.92,9.61l-6.93,9.61
				l-3.48,4.79l-3.69,4.63l-14.78,18.51c-2.49,3.06-4.88,6.22-7.44,9.21l-7.67,8.97l-15.35,17.95l-15.55,17.77
				c-5.2,5.91-10.34,11.87-15.63,17.7c-10.49,11.74-21.05,23.41-31.74,34.96c-10.61,11.62-21.41,23.07-32.15,34.57l-32.56,34.16
				c-21.72,22.74-43.48,45.44-64.44,68.81c-5.32,5.78-10.34,11.79-15.47,17.73c-2.6,2.94-4.99,6.04-7.46,9.09
				c-2.43,3.07-4.95,6.08-7.31,9.2c-4.59,6.34-9.42,12.53-13.55,19.18l-3.23,4.91c-0.53,0.82-1.1,1.62-1.59,2.47l-1.44,2.55
				l-5.77,10.23l-0.02,0.04c-0.23,0.41-0.75,0.55-1.16,0.32c-0.39-0.22-0.54-0.72-0.35-1.12c6.97-14.19,15.44-27.58,24.7-40.37
				c2.31-3.2,4.77-6.28,7.15-9.43c2.41-3.12,4.75-6.3,7.3-9.31c5.01-6.08,9.93-12.25,15.14-18.17l7.71-8.96
				c2.59-2.96,5.26-5.86,7.88-8.8l7.9-8.78l7.98-8.69c10.63-11.61,21.38-23.09,32.08-34.62c21.42-23.03,42.84-46.04,63.99-69.27
				c21.19-23.21,41.99-46.75,62.61-70.46l15.3-17.92l7.65-8.96c2.55-2.98,4.94-6.08,7.42-9.11l14.75-18.29l3.69-4.57l3.47-4.74
				l6.92-9.49c18.77-25.08,35.38-51.72,50.57-79.09c15.3-27.34,28.17-56.03,38.63-85.58c1.43-3.65,2.47-7.43,3.74-11.14l3.65-11.18
				l3.18-11.32l1.59-5.67c0.49-1.9,0.91-3.81,1.37-5.72c0.87-3.82,1.87-7.62,2.65-11.47l2.24-11.56c1.25-7.74,2.56-15.51,3.02-23.35
				c0-0.06,0.05-0.11,0.11-0.1C2264.4,824.04,2264.44,824.09,2264.44,824.15z"/>
		</g>
		<g>
			<g>
				<g>
					<path style="fill:#91B3FA;" d="M1301.88,661.49c-0.28,0.21-0.64,0.29-0.99,0.2c-0.64-0.16-1.03-0.8-0.87-1.44
						c0.37-1.53,0.72-3.06,1.05-4.6c0.14-0.64,0.77-1.05,1.41-0.92c0.64,0.14,1.05,0.77,0.92,1.41c-0.33,1.56-0.68,3.12-1.06,4.67
						C1302.25,661.1,1302.09,661.33,1301.88,661.49z"/>
					<path style="fill:#91B3FA;" d="M1250.73,741.62c-0.51,0.38-1.24,0.29-1.64-0.21c-0.41-0.51-0.33-1.26,0.19-1.67
						c2.37-1.89,4.71-3.89,6.96-5.93c0.48-0.44,1.24-0.41,1.68,0.08c0.44,0.49,0.41,1.24-0.08,1.68c-2.28,2.08-4.66,4.1-7.07,6.03
						C1250.75,741.61,1250.74,741.61,1250.73,741.62z M1238.57,750.36c-0.02,0.02-0.04,0.03-0.07,0.05
						c-2.6,1.67-5.27,3.28-7.97,4.79c-0.57,0.32-1.3,0.12-1.62-0.46c-0.32-0.57-0.14-1.29,0.46-1.62c2.65-1.48,5.28-3.06,7.84-4.71
						c0.55-0.36,1.29-0.2,1.64,0.36C1239.2,749.3,1239.07,749.99,1238.57,750.36z M1268.29,725.02c-0.44,0.33-1.07,0.32-1.5-0.07
						c-0.49-0.44-0.53-1.19-0.09-1.68c2.02-2.25,4-4.6,5.89-6.99c0.41-0.52,1.15-0.6,1.67-0.2c0.51,0.41,0.6,1.15,0.2,1.67
						c-1.92,2.43-3.93,4.82-5.98,7.11C1268.41,724.92,1268.35,724.98,1268.29,725.02z M1217.25,761.74
						c-0.07,0.05-0.15,0.1-0.24,0.14c-2.83,1.22-5.73,2.37-8.64,3.42c-0.62,0.22-1.3-0.1-1.52-0.72c-0.22-0.62,0.09-1.3,0.72-1.52
						c2.86-1.03,5.72-2.16,8.5-3.36c0.6-0.26,1.3,0.02,1.56,0.62C1217.85,760.83,1217.68,761.42,1217.25,761.74z M1282.9,705.77
						c-0.38,0.29-0.92,0.32-1.35,0.05c-0.55-0.35-0.72-1.09-0.36-1.64l0.46-0.72c1.47-2.33,2.89-4.73,4.22-7.14
						c0.32-0.57,1.04-0.78,1.62-0.46c0.57,0.32,0.78,1.04,0.46,1.62c-1.36,2.44-2.8,4.88-4.29,7.25l-0.46,0.73
						C1283.12,705.58,1283.02,705.68,1282.9,705.77z M1194.35,769.49c-0.12,0.09-0.27,0.16-0.42,0.2c-3,0.75-6.05,1.41-9.08,1.97
						c-0.65,0.12-1.27-0.31-1.38-0.95c-0.12-0.65,0.31-1.26,0.95-1.38c2.98-0.55,5.98-1.2,8.93-1.94c0.64-0.16,1.28,0.23,1.44,0.87
						C1194.92,768.73,1194.73,769.21,1194.35,769.49z M1294.21,684.41c-0.33,0.25-0.78,0.31-1.18,0.14
						c-0.6-0.26-0.88-0.96-0.62-1.56c1.2-2.79,2.32-5.65,3.34-8.51c0.22-0.62,0.9-0.94,1.52-0.72c0.62,0.22,0.94,0.9,0.72,1.52
						c-1.03,2.9-2.18,5.81-3.39,8.65C1294.51,684.12,1294.38,684.29,1294.21,684.41z M1170.51,773.42
						c-0.17,0.13-0.38,0.21-0.61,0.23c-3.08,0.25-6.2,0.41-9.28,0.47c-0.66,0.01-1.2-0.51-1.21-1.17c-0.01-0.66,0.51-1.2,1.17-1.21
						c3.02-0.06,6.1-0.21,9.13-0.46c0.65-0.05,1.23,0.43,1.28,1.09C1171.02,772.79,1170.83,773.18,1170.51,773.42z M1146.35,773.41
						c-0.22,0.17-0.51,0.26-0.81,0.23c-3.08-0.25-6.18-0.61-9.23-1.05c-0.65-0.1-1.1-0.7-1.01-1.35c0.1-0.65,0.7-1.1,1.35-1
						c3,0.44,6.05,0.79,9.08,1.04c0.65,0.05,1.14,0.63,1.09,1.28C1146.8,772.91,1146.62,773.22,1146.35,773.41z M1122.53,769.45
						c-0.28,0.21-0.64,0.29-1,0.2c-2.98-0.75-5.98-1.61-8.92-2.55c-0.63-0.2-0.97-0.87-0.77-1.49c0.2-0.62,0.87-0.97,1.49-0.77
						c2.89,0.93,5.85,1.77,8.78,2.51c0.64,0.16,1.02,0.81,0.86,1.44C1122.9,769.07,1122.74,769.29,1122.53,769.45z M1099.68,761.63
						c-0.33,0.25-0.78,0.31-1.19,0.14c-2.82-1.24-5.65-2.58-8.39-3.98c-0.58-0.3-0.81-1.02-0.51-1.6c0.3-0.58,1.02-0.81,1.6-0.51
						c2.7,1.39,5.48,2.71,8.25,3.92c0.6,0.26,0.88,0.96,0.61,1.57C1099.97,761.35,1099.84,761.51,1099.68,761.63z M1078.4,750.18
						c-0.39,0.29-0.93,0.32-1.36,0.04c-2.6-1.68-5.17-3.46-7.64-5.29c-0.53-0.39-0.64-1.13-0.25-1.66c0.39-0.53,1.13-0.64,1.66-0.25
						c2.43,1.8,4.96,3.55,7.52,5.21c0.55,0.36,0.71,1.09,0.35,1.64C1078.61,749.99,1078.51,750.09,1078.4,750.18z M1059.25,735.43
						c-0.45,0.33-1.08,0.31-1.51-0.07c-2.27-2.07-4.52-4.24-6.67-6.46c-0.46-0.47-0.45-1.22,0.02-1.68
						c0.47-0.45,1.22-0.45,1.68,0.02c2.12,2.19,4.33,4.33,6.57,6.36c0.49,0.44,0.52,1.19,0.08,1.68
						C1059.36,735.33,1059.31,735.39,1059.25,735.43z M1042.76,717.75c-0.51,0.38-1.24,0.29-1.64-0.22
						c-0.83-1.05-1.64-2.11-2.43-3.17c-1.06-1.42-2.1-2.87-3.09-4.3c-0.36-0.53-0.24-1.25,0.27-1.63c0.01-0.01,0.02-0.02,0.04-0.03
						c0.54-0.37,1.28-0.24,1.65,0.3c0.97,1.41,2,2.84,3.04,4.23c0.78,1.05,1.58,2.09,2.39,3.12c0.41,0.52,0.32,1.26-0.2,1.67
						C1042.78,717.74,1042.77,717.74,1042.76,717.75z"/>
					<path style="fill:#91B3FA;" d="M1029.38,697.53c-0.04,0.03-0.09,0.06-0.14,0.09c-0.58,0.32-1.3,0.11-1.61-0.47
						c-0.77-1.4-1.52-2.81-2.24-4.24c-0.3-0.59-0.06-1.3,0.52-1.6c0.59-0.3,1.3-0.06,1.6,0.52c0.71,1.4,1.44,2.79,2.2,4.17
						C1030,696.53,1029.85,697.18,1029.38,697.53z"/>
				</g>
				<g>
					<path style="fill:#91B3FA;" d="M1017.36,583.9c-0.29,0.22-0.68,0.3-1.05,0.19c-0.63-0.19-0.98-0.85-0.79-1.48
						c0.46-1.53,0.95-3.05,1.46-4.56c0.21-0.62,0.88-0.96,1.51-0.75c0.62,0.21,0.96,0.88,0.75,1.51c-0.5,1.49-0.98,2.99-1.44,4.49
						C1017.71,583.55,1017.55,583.76,1017.36,583.9z"/>
					<path style="fill:#91B3FA;" d="M1283.22,547.51c-0.02,0.02-0.05,0.04-0.08,0.05c-0.55,0.35-1.29,0.18-1.64-0.37
						c-1.71-2.71-3.54-5.39-5.43-7.98c-0.38-0.53-0.27-1.26,0.25-1.65c0,0,0.01,0,0.01-0.01c0.53-0.39,1.27-0.27,1.66,0.26
						c1.92,2.63,3.78,5.37,5.52,8.12C1283.84,546.45,1283.71,547.14,1283.22,547.51z M1267.75,527.21c-0.48,0.36-1.17,0.3-1.59-0.15
						c-2.15-2.37-4.42-4.7-6.73-6.92c-0.47-0.45-0.49-1.21-0.03-1.68c0.45-0.47,1.21-0.49,1.68-0.03c2.35,2.26,4.65,4.63,6.84,7.03
						c0.44,0.49,0.41,1.24-0.08,1.68C1267.81,527.16,1267.78,527.18,1267.75,527.21z M1248.99,509.89
						c-0.42,0.31-1.01,0.32-1.44-0.01c-2.53-1.96-5.16-3.86-7.83-5.66c-0.54-0.37-0.69-1.11-0.32-1.65
						c0.37-0.54,1.11-0.69,1.65-0.32c2.71,1.83,5.38,3.76,7.95,5.75c0.52,0.4,0.62,1.15,0.21,1.67
						C1249.15,509.75,1249.07,509.83,1248.99,509.89z M1227.54,496.05c-0.36,0.27-0.85,0.32-1.27,0.1c-2.83-1.5-5.75-2.93-8.67-4.24
						c-0.6-0.27-0.87-0.97-0.6-1.57c0.27-0.6,0.97-0.87,1.57-0.6c2.97,1.33,5.94,2.78,8.81,4.31c0.58,0.31,0.8,1.03,0.49,1.61
						C1227.79,495.82,1227.68,495.95,1227.54,496.05z M1204.05,486.09c-0.3,0.22-0.7,0.3-1.08,0.18c-3.05-0.99-6.17-1.89-9.27-2.67
						c-0.64-0.16-1.02-0.81-0.86-1.44c0.16-0.64,0.81-1.02,1.44-0.86c3.15,0.8,6.32,1.71,9.42,2.72c0.62,0.2,0.97,0.87,0.76,1.5
						C1204.39,485.75,1204.24,485.95,1204.05,486.09z M1179.19,480.36c-0.24,0.18-0.55,0.27-0.88,0.22c-3.17-0.45-6.4-0.79-9.6-1.02
						c-0.66-0.05-1.15-0.62-1.1-1.27c0.05-0.65,0.62-1.15,1.27-1.1c3.25,0.24,6.53,0.59,9.75,1.04c0.65,0.09,1.1,0.69,1.01,1.34
						C1179.61,479.9,1179.44,480.18,1179.19,480.36z M1153.72,479.02c-0.19,0.14-0.42,0.23-0.67,0.23
						c-3.21,0.11-6.45,0.33-9.63,0.65c-0.65,0.07-1.24-0.41-1.3-1.06c-0.07-0.65,0.41-1.24,1.06-1.3c3.24-0.32,6.53-0.55,9.79-0.66
						c0.66-0.02,1.21,0.49,1.23,1.15C1154.21,478.43,1154.02,478.8,1153.72,479.02z M1024.66,564.69c-0.34,0.25-0.8,0.32-1.21,0.13
						c-0.6-0.28-0.86-0.98-0.58-1.58c1.37-2.95,2.85-5.9,4.41-8.76c0.32-0.58,1.04-0.79,1.61-0.47c0.58,0.31,0.79,1.04,0.47,1.61
						c-1.53,2.82-2.99,5.72-4.34,8.63C1024.94,564.42,1024.81,564.57,1024.66,564.69z M1128.38,482.09
						c-0.13,0.1-0.29,0.17-0.47,0.21c-3.14,0.66-6.29,1.43-9.38,2.29c-0.63,0.18-1.29-0.19-1.46-0.83c-0.18-0.63,0.2-1.29,0.83-1.46
						c3.14-0.88,6.34-1.66,9.53-2.33c0.64-0.13,1.27,0.28,1.41,0.92C1128.93,481.36,1128.74,481.82,1128.38,482.09z M1037.32,542.52
						c-0.4,0.3-0.96,0.32-1.39,0.02c-0.54-0.37-0.68-1.11-0.3-1.65c1.85-2.68,3.82-5.34,5.84-7.89c0.4-0.51,1.15-0.6,1.67-0.19
						c0.51,0.41,0.6,1.16,0.19,1.67c-1.99,2.51-3.92,5.12-5.74,7.76C1037.51,542.36,1037.42,542.45,1037.32,542.52z M1103.94,489.45
						c-0.08,0.06-0.17,0.11-0.27,0.15c-2.98,1.19-5.96,2.49-8.85,3.86c-0.59,0.28-1.3,0.03-1.58-0.56c-0.28-0.59-0.04-1.3,0.56-1.58
						c2.94-1.4,5.97-2.72,8.99-3.93c0.61-0.24,1.3,0.06,1.54,0.66C1104.54,488.57,1104.36,489.13,1103.94,489.45z M1053.58,522.85
						c-0.46,0.34-1.12,0.31-1.54-0.11c-0.47-0.46-0.47-1.21-0.01-1.68c2.29-2.32,4.68-4.6,7.11-6.76c0.5-0.45,1.24-0.39,1.68,0.1
						c0.44,0.49,0.39,1.24-0.1,1.68c-2.4,2.13-4.75,4.37-7,6.65C1053.68,522.77,1053.63,522.81,1053.58,522.85z M1081.13,500.9
						c-0.03,0.02-0.06,0.04-0.09,0.06c-2.73,1.68-5.44,3.48-8.05,5.34c-0.54,0.38-1.28,0.26-1.66-0.28
						c-0.38-0.53-0.25-1.23,0.28-1.66c2.66-1.89,5.41-3.71,8.18-5.42c0.56-0.34,1.29-0.17,1.64,0.39
						C1081.76,499.86,1081.62,500.54,1081.13,500.9z"/>
					<path style="fill:#91B3FA;" d="M1293,565.69c-0.07,0.05-0.14,0.09-0.22,0.13c-0.6,0.27-1.3,0-1.57-0.6
						c-0.64-1.43-1.31-2.85-2-4.27c-0.29-0.59-0.05-1.3,0.54-1.59c0.59-0.29,1.3-0.04,1.59,0.55c0.7,1.43,1.38,2.88,2.04,4.33
						C1293.6,564.76,1293.43,565.36,1293,565.69z"/>
				</g>
				<g>
					<g>
						<path style="fill:#91B3FA;" d="M1266.18,592.2c-0.14-0.74-0.74-1.31-1.49-1.42l-21.33-3.02c-4.11-9.18-9.72-17.77-16.75-25.37
							l5.58-20.79c0.2-0.73-0.09-1.5-0.72-1.93l-21.41-14.47c-0.63-0.42-1.45-0.4-2.05,0.05l-17.21,12.93
							c-9.67-3.69-19.74-5.68-29.79-6.07l-10.76-18.66c-0.38-0.65-1.13-1-1.87-0.85l-25.37,4.91c-0.74,0.14-1.31,0.74-1.42,1.49
							l-3.02,21.33c-9.18,4.11-17.77,9.72-25.37,16.75l-20.79-5.58c-0.73-0.2-1.5,0.09-1.92,0.72l-14.47,21.41
							c-0.42,0.63-0.4,1.45,0.05,2.05L1069,592.9c-3.69,9.67-5.68,19.74-6.07,29.79l-18.66,10.77c-0.65,0.38-1,1.13-0.85,1.87
							l4.91,25.37c0.14,0.74,0.74,1.31,1.49,1.42l21.33,3.02c4.11,9.18,9.72,17.77,16.75,25.37l-5.58,20.79
							c-0.2,0.73,0.09,1.5,0.72,1.93l21.41,14.47c0.63,0.42,1.45,0.4,2.05-0.05l17.21-12.94c9.67,3.69,19.74,5.68,29.79,6.07
							l10.76,18.66c0.38,0.65,1.13,1,1.87,0.85l25.37-4.91c0.74-0.14,1.31-0.74,1.42-1.49l3.02-21.33
							c9.18-4.11,17.77-9.72,25.37-16.75l20.79,5.58c0.73,0.2,1.5-0.09,1.92-0.72l14.47-21.41c0.42-0.63,0.4-1.45-0.05-2.05
							l-12.94-17.21c3.69-9.67,5.68-19.74,6.07-29.79l18.66-10.77c0.65-0.38,1-1.13,0.85-1.87L1266.18,592.2z"/>
					</g>
					<g>
						<path style="fill:#BDD0FB;" d="M1171.7,645.77c-6.29,4.69-14.74,6.23-22.65,3.37c-6.06-2.19-10.91-6.61-13.64-12.45
							c-2.74-5.84-3.04-12.39-0.85-18.45c2.19-6.06,6.61-10.91,12.45-13.64c5.84-2.74,12.39-3.04,18.45-0.85
							c12.51,4.52,19.01,18.39,14.49,30.9C1178.28,639.25,1175.36,643.04,1171.7,645.77z M1144.21,609.03
							c-3.38,2.52-5.95,5.97-7.42,10.02c-1.98,5.47-1.7,11.37,0.76,16.63c2.47,5.26,6.84,9.25,12.3,11.22
							c11.28,4.08,23.78-1.78,27.86-13.06c4.08-11.28-1.78-23.78-13.06-27.86c-5.46-1.98-11.37-1.71-16.63,0.76
							C1146.66,607.39,1145.39,608.15,1144.21,609.03z"/>
					</g>
					<path style="fill:#BDD0FB;" d="M1194.75,677.51c-21.06,15.7-50.63,17.25-73.59,1.74c-6.07-4.1-11.2-9.07-15.35-14.63
						c-15.69-21.06-17.25-50.62-1.73-73.58c9.5-14.06,23.91-23.58,40.57-26.81c16.66-3.23,33.58,0.23,47.65,9.73
						c3.43,2.32,6.63,4.97,9.54,7.88c0.27,0.27,0.54,0.55,0.81,0.83c0.03,0.04,0.07,0.07,0.1,0.11c0.35,0.47,0.31,1.15-0.13,1.57
						c-0.46,0.44-1.23,0.44-1.68-0.04c-3-3.12-6.35-5.95-9.96-8.39c-13.54-9.15-29.82-12.47-45.86-9.37
						c-16.04,3.11-29.91,12.27-39.05,25.81c-14.93,22.1-13.44,50.56,1.67,70.83c3.99,5.36,8.93,10.14,14.77,14.09
						c27.94,18.88,66.04,11.5,84.92-16.44c6.21-9.19,9.8-19.86,10.4-30.87c0.04-0.66,0.6-1.16,1.25-1.12
						c0.37,0.02,0.69,0.2,0.89,0.48c0.16,0.22,0.25,0.49,0.23,0.78c-0.62,11.44-4.35,22.53-10.8,32.08
						C1205.28,668.23,1200.31,673.36,1194.75,677.51z"/>
				</g>
			</g>
			<g>
				<g>
					<path style="fill:#91B3FA;" d="M1468.29,496.49c-0.15,0.2-0.39,0.33-0.66,0.34c-0.48,0.02-0.89-0.35-0.91-0.84
						c-0.05-1.15-0.11-2.3-0.2-3.45c-0.03-0.48,0.33-0.9,0.81-0.93c0.48-0.04,0.9,0.33,0.93,0.81c0.09,1.17,0.15,2.34,0.2,3.51
						C1468.48,496.13,1468.41,496.33,1468.29,496.49z"/>
					<path style="fill:#91B3FA;" d="M1448.53,563.35c-0.28,0.37-0.81,0.46-1.2,0.18c-0.39-0.28-0.49-0.82-0.21-1.21
						c1.28-1.82,2.53-3.7,3.7-5.59c0.25-0.41,0.79-0.54,1.2-0.28c0.41,0.25,0.54,0.79,0.28,1.2c-1.19,1.93-2.45,3.84-3.76,5.68
						C1448.54,563.34,1448.54,563.35,1448.53,563.35z M1441.74,571.98c-0.01,0.02-0.02,0.03-0.04,0.05
						c-1.49,1.71-3.05,3.38-4.64,4.99c-0.34,0.34-0.89,0.34-1.23,0.01c-0.34-0.34-0.36-0.88-0.01-1.23c1.56-1.58,3.1-3.23,4.57-4.91
						c0.32-0.36,0.87-0.4,1.23-0.08C1441.97,571.1,1442.02,571.62,1441.74,571.98z M1457.53,548.09c-0.25,0.32-0.69,0.44-1.07,0.26
						c-0.43-0.21-0.61-0.73-0.41-1.16c0.97-2,1.88-4.06,2.73-6.13c0.18-0.45,0.69-0.66,1.14-0.48c0.45,0.18,0.66,0.69,0.48,1.14
						c-0.86,2.1-1.79,4.2-2.77,6.23C1457.6,547.99,1457.57,548.04,1457.53,548.09z M1429.02,584.34c-0.04,0.05-0.09,0.1-0.14,0.15
						c-1.74,1.44-3.56,2.84-5.39,4.17c-0.39,0.28-0.94,0.19-1.22-0.2c-0.28-0.39-0.2-0.93,0.2-1.22c1.81-1.31,3.59-2.69,5.31-4.1
						c0.37-0.31,0.92-0.25,1.23,0.12C1429.26,583.58,1429.26,584.02,1429.02,584.34z M1463.92,531.55
						c-0.21,0.28-0.58,0.41-0.94,0.31c-0.46-0.14-0.73-0.62-0.59-1.08l0.18-0.6c0.56-1.94,1.07-3.92,1.53-5.89
						c0.11-0.47,0.58-0.76,1.04-0.65c0.47,0.11,0.76,0.57,0.65,1.04c-0.46,2-0.98,4.01-1.55,5.98l-0.18,0.61
						C1464.03,531.37,1463.98,531.46,1463.92,531.55z M1414.46,594.45c-0.07,0.09-0.15,0.17-0.26,0.23c-1.96,1.14-3.98,2.22-6,3.23
						c-0.43,0.21-0.95,0.04-1.17-0.39c-0.21-0.43-0.04-0.95,0.39-1.17c1.99-0.99,3.97-2.06,5.9-3.18c0.42-0.24,0.95-0.1,1.19,0.32
						C1414.71,593.8,1414.67,594.18,1414.46,594.45z M1467.55,514.19c-0.18,0.24-0.48,0.38-0.8,0.34c-0.48-0.06-0.82-0.5-0.76-0.97
						c0.28-2.21,0.49-4.46,0.62-6.67c0.03-0.48,0.44-0.85,0.92-0.82c0.48,0.03,0.85,0.44,0.82,0.92c-0.14,2.26-0.35,4.54-0.63,6.78
						C1467.7,513.93,1467.64,514.08,1467.55,514.19z M1398.46,602.07c-0.1,0.13-0.23,0.23-0.38,0.29c-2.12,0.8-4.29,1.55-6.44,2.22
						c-0.46,0.14-0.95-0.11-1.09-0.57c-0.14-0.46,0.11-0.95,0.58-1.09c2.12-0.66,4.25-1.39,6.34-2.18c0.45-0.17,0.95,0.06,1.12,0.51
						C1398.69,601.52,1398.63,601.83,1398.46,602.07z M1381.43,606.97c-0.12,0.16-0.31,0.28-0.52,0.33
						c-2.22,0.45-4.48,0.83-6.72,1.13c-0.48,0.07-0.92-0.27-0.98-0.75c-0.06-0.48,0.27-0.92,0.75-0.98c2.2-0.3,4.42-0.68,6.61-1.11
						c0.47-0.1,0.93,0.21,1.03,0.68C1381.65,606.53,1381.58,606.78,1381.43,606.97z M1363.84,609.02c-0.15,0.2-0.39,0.34-0.67,0.34
						c-2.25,0.08-4.54,0.08-6.81,0.01c-0.48-0.01-0.86-0.42-0.85-0.9c0.01-0.48,0.42-0.86,0.9-0.85c2.23,0.06,4.48,0.06,6.7-0.01
						c0.48-0.02,0.88,0.36,0.9,0.84C1364.02,608.67,1363.96,608.87,1363.84,609.02z M1346.14,608.15c-0.18,0.24-0.49,0.38-0.81,0.34
						c-2.24-0.3-4.5-0.67-6.72-1.1c-0.47-0.09-0.78-0.55-0.69-1.02c0.09-0.47,0.55-0.78,1.02-0.69c2.18,0.43,4.41,0.79,6.61,1.09
						c0.48,0.06,0.81,0.5,0.75,0.98C1346.29,607.9,1346.23,608.04,1346.14,608.15z M1328.82,604.41c-0.21,0.28-0.59,0.42-0.95,0.31
						c-2.18-0.66-4.35-1.39-6.46-2.18c-0.45-0.17-0.68-0.67-0.51-1.12c0.17-0.45,0.67-0.68,1.12-0.51c2.08,0.77,4.21,1.49,6.36,2.14
						c0.46,0.14,0.72,0.63,0.58,1.09C1328.93,604.23,1328.88,604.33,1328.82,604.41z M1312.33,597.91c-0.25,0.33-0.7,0.44-1.08,0.25
						c-2.02-0.99-4.04-2.07-6.02-3.2c-0.42-0.24-0.56-0.77-0.32-1.19c0.24-0.42,0.77-0.56,1.19-0.32c1.94,1.11,3.93,2.17,5.92,3.15
						c0.43,0.21,0.61,0.73,0.4,1.17C1312.39,597.82,1312.36,597.86,1312.33,597.91z M1297.12,588.8c-0.28,0.37-0.82,0.46-1.2,0.18
						c-0.79-0.57-1.58-1.15-2.36-1.74c-1.03-0.79-2.06-1.59-3.05-2.41c-0.36-0.3-0.42-0.83-0.14-1.2c0.01-0.01,0.01-0.02,0.02-0.03
						c0.31-0.37,0.85-0.43,1.23-0.12c0.97,0.8,1.98,1.59,3,2.37c0.76,0.58,1.54,1.15,2.32,1.71c0.39,0.28,0.48,0.83,0.2,1.22
						C1297.13,588.79,1297.12,588.79,1297.12,588.8z"/>
					<path style="fill:#91B3FA;" d="M1283.57,577.26c-0.02,0.03-0.05,0.06-0.08,0.09c-0.34,0.34-0.89,0.34-1.23,0
						c-0.83-0.83-1.64-1.67-2.44-2.53c-0.33-0.35-0.31-0.9,0.04-1.23c0.35-0.33,0.9-0.31,1.23,0.04c0.78,0.84,1.58,1.67,2.4,2.49
						C1283.81,576.44,1283.83,576.92,1283.57,577.26z"/>
				</g>
				<g>
					<path style="fill:#91B3FA;" d="M1252.01,499.63c-0.16,0.21-0.42,0.35-0.71,0.35c-0.48-0.01-0.87-0.4-0.86-0.88
						c0.01-1.17,0.05-2.34,0.1-3.51c0.02-0.48,0.43-0.85,0.91-0.83c0.48,0.02,0.85,0.43,0.83,0.91c-0.05,1.15-0.08,2.31-0.1,3.46
						C1252.18,499.31,1252.12,499.49,1252.01,499.63z"/>
					<path style="fill:#91B3FA;" d="M1431.97,419.95c-0.01,0.02-0.03,0.04-0.04,0.05c-0.32,0.36-0.87,0.39-1.23,0.07
						c-1.76-1.56-3.59-3.08-5.45-4.52c-0.38-0.29-0.45-0.84-0.16-1.22c0,0,0,0,0.01-0.01c0.29-0.38,0.84-0.45,1.22-0.15
						c1.89,1.47,3.75,3.01,5.54,4.6C1432.2,419.08,1432.25,419.59,1431.97,419.95z M1416.95,408.79c-0.27,0.35-0.77,0.45-1.15,0.21
						c-2-1.23-4.07-2.41-6.15-3.51c-0.43-0.22-0.59-0.75-0.36-1.18c0.22-0.42,0.75-0.59,1.18-0.36c2.12,1.12,4.22,2.32,6.25,3.57
						c0.41,0.25,0.54,0.79,0.29,1.2C1416.98,408.74,1416.96,408.76,1416.95,408.79z M1400.21,400.4c-0.23,0.3-0.64,0.43-1.02,0.28
						c-2.18-0.86-4.42-1.67-6.67-2.4c-0.46-0.15-0.71-0.64-0.56-1.1c0.15-0.46,0.64-0.71,1.1-0.56c2.28,0.74,4.56,1.55,6.77,2.43
						c0.45,0.18,0.67,0.68,0.49,1.13C1400.29,400.27,1400.26,400.34,1400.21,400.4z M1382.28,395c-0.2,0.26-0.53,0.4-0.87,0.33
						c-2.3-0.48-4.65-0.89-6.97-1.23c-0.48-0.07-0.81-0.51-0.74-0.98c0.07-0.48,0.51-0.81,0.99-0.74c2.36,0.33,4.75,0.75,7.09,1.24
						c0.47,0.1,0.77,0.56,0.67,1.03C1382.41,394.79,1382.36,394.91,1382.28,395z M1363.7,392.76c-0.17,0.22-0.43,0.35-0.72,0.34
						c-2.35-0.08-4.73-0.08-7.08,0c-0.48,0.02-0.88-0.36-0.9-0.84c-0.02-0.48,0.36-0.88,0.84-0.9c2.38-0.08,4.8-0.08,7.19,0
						c0.48,0.02,0.86,0.42,0.84,0.9C1363.87,392.45,1363.8,392.62,1363.7,392.76z M1345.02,393.77c-0.13,0.18-0.33,0.3-0.57,0.34
						c-2.32,0.33-4.67,0.74-6.97,1.23c-0.47,0.1-0.93-0.2-1.03-0.67c-0.1-0.47,0.2-0.93,0.67-1.03c2.34-0.49,4.72-0.91,7.09-1.25
						c0.48-0.07,0.92,0.26,0.99,0.74C1345.22,393.36,1345.15,393.59,1345.02,393.77z M1326.79,398.01c-0.1,0.14-0.25,0.24-0.42,0.3
						c-2.24,0.73-4.48,1.54-6.66,2.41c-0.45,0.18-0.95-0.04-1.13-0.49c-0.18-0.45,0.04-0.95,0.49-1.13
						c2.22-0.89,4.49-1.71,6.77-2.45c0.46-0.15,0.95,0.1,1.1,0.56C1327.02,397.49,1326.96,397.79,1326.79,398.01z M1253.25,484.61
						c-0.19,0.25-0.5,0.39-0.83,0.33c-0.48-0.07-0.8-0.52-0.73-0.99c0.36-2.36,0.81-4.74,1.33-7.07c0.11-0.47,0.57-0.77,1.04-0.66
						c0.47,0.1,0.77,0.57,0.66,1.04c-0.51,2.3-0.95,4.64-1.3,6.96C1253.39,484.36,1253.33,484.5,1253.25,484.61z M1309.56,405.31
						c-0.07,0.1-0.17,0.18-0.29,0.24c-2.08,1.1-4.14,2.28-6.15,3.52c-0.41,0.25-0.95,0.13-1.2-0.28c-0.25-0.41-0.12-0.95,0.28-1.2
						c2.03-1.25,4.13-2.46,6.25-3.58c0.43-0.23,0.95-0.06,1.18,0.36C1309.8,404.69,1309.76,405.05,1309.56,405.31z M1257.67,466.41
						c-0.22,0.29-0.61,0.42-0.97,0.3c-0.46-0.15-0.7-0.65-0.55-1.1c0.76-2.27,1.61-4.54,2.51-6.75c0.18-0.44,0.69-0.66,1.14-0.48
						c0.45,0.18,0.66,0.69,0.48,1.14c-0.89,2.17-1.72,4.41-2.47,6.64C1257.77,466.26,1257.73,466.34,1257.67,466.41z
						 M1293.83,415.47c-0.05,0.06-0.1,0.11-0.16,0.16c-1.86,1.44-3.69,2.96-5.45,4.52c-0.36,0.32-0.91,0.29-1.23-0.07
						c-0.32-0.36-0.29-0.91,0.07-1.23c1.79-1.59,3.65-3.13,5.54-4.6c0.38-0.29,0.93-0.23,1.22,0.15
						C1294.07,414.73,1294.07,415.16,1293.83,415.47z M1265.13,449.24c-0.26,0.34-0.73,0.45-1.11,0.24
						c-0.42-0.23-0.58-0.76-0.35-1.18c1.14-2.1,2.36-4.19,3.64-6.21c0.26-0.42,0.8-0.53,1.2-0.27c0.41,0.26,0.53,0.8,0.27,1.2
						c-1.26,1.99-2.46,4.04-3.58,6.11C1265.18,449.17,1265.16,449.21,1265.13,449.24z M1280.08,428.18
						c-0.02,0.02-0.03,0.04-0.05,0.06c-1.58,1.74-3.12,3.56-4.59,5.4c-0.3,0.38-0.85,0.44-1.23,0.14c-0.38-0.3-0.42-0.82-0.14-1.22
						c1.49-1.87,3.06-3.72,4.66-5.48c0.32-0.36,0.88-0.38,1.23-0.06C1280.31,427.31,1280.35,427.82,1280.08,428.18z"/>
					<path style="fill:#91B3FA;" d="M1442.56,430.77c-0.04,0.05-0.08,0.1-0.13,0.14c-0.37,0.31-0.92,0.27-1.23-0.1
						c-0.74-0.88-1.51-1.74-2.28-2.6c-0.32-0.36-0.3-0.91,0.06-1.23c0.36-0.32,0.91-0.3,1.23,0.06c0.79,0.87,1.56,1.75,2.32,2.64
						C1442.8,430,1442.8,430.45,1442.56,430.77z"/>
				</g>
				<g>
					<g>
						<path style="fill:#91B3FA;" d="M1429.05,454.91c-0.25-0.49-0.79-0.77-1.34-0.7l-15.65,2.2c-4.77-5.63-10.46-10.55-16.96-14.48
							l-0.29-15.79c-0.01-0.55-0.37-1.04-0.9-1.21l-18.03-5.84c-0.53-0.17-1.1,0.01-1.44,0.45l-9.5,12.61
							c-7.57-0.63-15.06,0.01-22.23,1.77l-11.38-10.96c-0.4-0.38-1-0.47-1.49-0.22l-16.88,8.62c-0.49,0.25-0.77,0.79-0.7,1.34
							l2.2,15.65c-5.63,4.77-10.55,10.46-14.48,16.96l-15.79,0.29c-0.55,0.01-1.04,0.37-1.21,0.9l-5.84,18.03
							c-0.17,0.53,0.01,1.1,0.45,1.44l12.61,9.5c-0.63,7.57,0.01,15.06,1.77,22.23l-10.96,11.38c-0.38,0.4-0.47,1-0.22,1.49
							l8.62,16.88c0.25,0.49,0.79,0.77,1.34,0.7l15.65-2.2c4.76,5.63,10.46,10.55,16.96,14.48l0.29,15.79
							c0.01,0.55,0.37,1.04,0.9,1.21l18.03,5.84c0.53,0.17,1.1-0.01,1.44-0.45l9.5-12.61c7.57,0.63,15.06-0.01,22.23-1.77
							l11.38,10.96c0.4,0.38,1,0.47,1.49,0.22l16.88-8.62c0.49-0.25,0.77-0.79,0.7-1.34l-2.2-15.65
							c5.63-4.77,10.55-10.46,14.48-16.96l15.79-0.29c0.55-0.01,1.04-0.37,1.21-0.9l5.84-18.03c0.17-0.53-0.01-1.1-0.45-1.44
							l-12.61-9.5c0.63-7.57-0.01-15.06-1.77-22.23l10.96-11.38c0.38-0.4,0.47-1,0.22-1.49L1429.05,454.91z"/>
					</g>
					<g>
						<path style="fill:#BDD0FB;" d="M1373.35,511.86c-3.48,4.58-9.12,7.39-15.28,6.98c-4.72-0.31-9.03-2.44-12.15-6
							c-3.12-3.56-4.66-8.11-4.35-12.83c0.31-4.72,2.44-9.03,6-12.15c3.56-3.11,8.11-4.66,12.83-4.35
							c9.74,0.65,17.14,9.09,16.49,18.83C1376.67,505.93,1375.38,509.2,1373.35,511.86z M1346.51,491.56
							c-1.87,2.46-2.98,5.42-3.19,8.57c-0.28,4.25,1.11,8.36,3.92,11.57c2.81,3.21,6.7,5.13,10.95,5.41
							c8.78,0.58,16.39-6.09,16.98-14.87c0.58-8.78-6.09-16.39-14.87-16.98c-4.25-0.28-8.36,1.11-11.57,3.92
							C1347.91,489.9,1347.16,490.7,1346.51,491.56z"/>
					</g>
					<path style="fill:#BDD0FB;" d="M1396.05,529.55c-11.65,15.35-32.17,22.45-51.51,16.18c-5.11-1.66-9.74-4.12-13.79-7.19
						c-15.34-11.65-22.44-32.17-16.18-51.51c3.84-11.84,12.06-21.48,23.14-27.14c11.09-5.66,23.72-6.66,35.56-2.83
						c2.89,0.94,5.68,2.15,8.32,3.62c0.25,0.14,0.49,0.28,0.74,0.42c0.03,0.02,0.06,0.04,0.09,0.06c0.35,0.26,0.45,0.75,0.23,1.13
						c-0.23,0.41-0.78,0.56-1.19,0.32c-2.75-1.59-5.68-2.9-8.73-3.89c-11.4-3.69-23.55-2.73-34.23,2.72
						c-10.67,5.45-18.58,14.73-22.28,26.12c-6.03,18.61,0.8,38.36,15.57,49.58c3.9,2.96,8.36,5.33,13.27,6.92
						c23.53,7.63,48.88-5.32,56.5-28.84c2.51-7.74,2.87-15.99,1.05-23.87c-0.11-0.47,0.18-0.94,0.65-1.05
						c0.26-0.06,0.52,0,0.72,0.15c0.16,0.12,0.28,0.29,0.32,0.5c1.89,8.19,1.51,16.76-1.09,24.8
						C1401.58,520.87,1399.12,525.5,1396.05,529.55z"/>
				</g>
			</g>
		</g>
		<g>
			<g>
				<linearGradient id="SVGID_2_" gradientUnits="userSpaceOnUse" x1="1133.7257" y1="1375.7236" x2="1424.5948" y2="503.1138">
					<stop  offset="0" style="stop-color:#2B3582"/>
					<stop  offset="1" style="stop-color:#150E42"/>
				</linearGradient>
				<path style="fill:url(#SVGID_2_);" d="M1884.77,1407.38c0,12.51-10.25,22.75-22.77,22.75H630.43
					c-12.53,0-22.77-10.24-22.77-22.75l-10.25-707.75c0-12.51,14.74-36.94,41.76-35.11l1203.62-31.14
					c15.72-0.41,30.91,5.64,42.04,16.74c11.13,11.09,17.22,26.26,16.85,41.96L1884.77,1407.38z"/>
				<linearGradient id="SVGID_3_" gradientUnits="userSpaceOnUse" x1="870.4343" y1="1512.7778" x2="1657.8458" y2="560.3855">
					<stop  offset="0" style="stop-color:#FE7062"/>
					<stop  offset="1" style="stop-color:#FF928E"/>
				</linearGradient>
				<path style="fill:url(#SVGID_3_);" d="M1862.29,1385.55c0,11.85-9.7,21.55-21.55,21.55H660.13c-11.85,0-21.55-9.7-21.55-21.55
					l-9.67-642.5c1.14-38.66,35.04-52.56,55.58-51.74l1153.6-30.95c11.04-0.3,21.72,3.95,29.54,11.76
					c7.82,7.8,12.09,18.48,11.81,29.52L1862.29,1385.55z"/>
				<g>
					<path style="opacity:0.37;fill:#FFFFFF;" d="M651.35,1079.19c-1.11,0-2.02-0.89-2.03-2l-0.77-52.11
						c-0.02-1.12,0.88-2.05,2-2.06c1.09-0.06,2.05,0.88,2.06,2l0.77,52.11c0.02,1.12-0.88,2.05-2,2.06
						C651.37,1079.19,651.36,1079.19,651.35,1079.19z"/>
					<path style="opacity:0.37;fill:#FFFFFF;" d="M649.47,951.51c-1.11,0-2.02-0.89-2.03-2l-2.93-199.56
						c0.06-13.42,4.2-24.13,12.29-31.89c14.71-14.1,37.72-13.39,38.69-13.35l368.37-9.89c1.11-0.1,2.06,0.85,2.09,1.98
						c0.03,1.12-0.86,2.06-1.98,2.09l-368.48,9.89c-1.05-0.04-22.38-0.69-35.86,12.22c-7.27,6.97-10.99,16.7-11.04,28.94
						l2.93,199.52c0.02,1.12-0.88,2.05-2,2.06C649.49,951.51,649.48,951.51,649.47,951.51z"/>
				</g>
				<path style="opacity:0.29;fill:#FFFFFF;" d="M690.6,1349.91c1.24-53.1,0.78-523.35-2.27-563.96
					c-3.05-40.61,60.2-48.23,157.31-52.8c97.11-4.57,916.46-22.67,937.56-24.38c47.42-3.85,57.24,67.03,52.49,220.91
					c-3.56,115.6-9.47,306.04-12.19,393.61c-0.81,26.08-22.12,46.77-48.21,46.84c-197.17,0.54-952.86,2.71-1003.17,4.21
					C714.23,1376.06,690.11,1370.96,690.6,1349.91z"/>
			</g>
			<linearGradient id="SVGID_4_" gradientUnits="userSpaceOnUse" x1="1204.4076" y1="1754.6475" x2="1314.0177" y2="1155.3258">
				<stop  offset="0" style="stop-color:#2B3582"/>
				<stop  offset="1" style="stop-color:#150E42"/>
			</linearGradient>
			<path style="fill:url(#SVGID_4_);" d="M1953.59,1488.88H563.81c-17.1,0-31.09-13.99-31.09-31.09s13.99-31.09,31.09-31.09h1389.78
				c17.1,0,31.09,13.99,31.09,31.09S1970.69,1488.88,1953.59,1488.88z"/>
		</g>
		<g>
			<linearGradient id="SVGID_5_" gradientUnits="userSpaceOnUse" x1="1156.1537" y1="704.6872" x2="1360.0931" y2="1291.7861">
				<stop  offset="0" style="stop-color:#2B3582"/>
				<stop  offset="1" style="stop-color:#150E42"/>
			</linearGradient>
			<path style="fill:url(#SVGID_5_);" d="M1052.42,1020.33h423.12c4.53,0,6.91-5.38,3.86-8.73l-211.81-232.59
				c-2.07-2.28-5.65-2.27-7.72,0l-211.3,232.59C1045.51,1014.95,1047.89,1020.33,1052.42,1020.33z"/>
			<linearGradient id="SVGID_6_" gradientUnits="userSpaceOnUse" x1="1117.0549" y1="718.2691" x2="1320.9939" y2="1305.3665">
				<stop  offset="0" style="stop-color:#2B3582"/>
				<stop  offset="1" style="stop-color:#150E42"/>
			</linearGradient>
			<path style="fill:url(#SVGID_6_);" d="M1074.02,1020.33v238.61c0,5.55,4.5,10.06,10.06,10.06h96.32c2.15,0,3.89-1.74,3.89-3.89
				v-145.8c0-1.55,1.26-2.81,2.81-2.81h74.25c1.46,0,2.64,1.18,2.64,2.64v146.57c0,1.81,1.47,3.28,3.28,3.28h175.15
				c6.08,0,11.01-4.93,11.01-11.01v-237.66H1074.02z"/>
		</g>
		<g>
			<g>
				
					<linearGradient id="SVGID_7_" gradientUnits="userSpaceOnUse" x1="1536.4265" y1="-347.689" x2="1495.8461" y2="-264.0435" gradientTransform="matrix(0.987 0.1608 -0.1608 0.987 -46.6743 443.2292)">
					<stop  offset="0" style="stop-color:#09005D"/>
					<stop  offset="1" style="stop-color:#1A0F91"/>
				</linearGradient>
				<path style="fill:url(#SVGID_7_);" d="M1447.74,417.51c-0.21,0.39-13.26,10-13.26,10s2.88,20.62,14.58,28.76
					c12.87,8.95,31.04-7.37,31.04-7.37s14.46,3.44,22.15-26.66c1.76-6.91-8.42-7.49-20.71-6.22
					C1465.69,417.65,1447.74,417.51,1447.74,417.51z"/>
				<linearGradient id="SVGID_8_" gradientUnits="userSpaceOnUse" x1="1465.8381" y1="475.1705" x2="1478.755" y2="865.9028">
					<stop  offset="0" style="stop-color:#FE7062"/>
					<stop  offset="1" style="stop-color:#FF928E"/>
				</linearGradient>
				<path style="fill:url(#SVGID_8_);" d="M1423.34,487.85c5.11-3.51,10.75-6.16,16.73-7.79c2.25-0.61,14.38,2.92,21.89,2.74
					c10.3-0.24,20.78-4.92,29.27-2.81c8.43,2.1,15.33,4.85,19.32,7.68c11.93,8.48,18.93,24.3,23.2,39.97
					c-8.08,8.3-18.25,11.98-18.25,11.98l-1.88,76.16l-45.04,23.04l-51.4-25.81l1.84-74.43c0,0-16.32-7.6-17.52-10.37
					C1400.3,525.47,1408.94,497.75,1423.34,487.85z"/>
				<linearGradient id="SVGID_9_" gradientUnits="userSpaceOnUse" x1="1454.5938" y1="471.3741" x2="1427.7218" y2="545.1158">
					<stop  offset="0" style="stop-color:#FF928E"/>
					<stop  offset="1" style="stop-color:#FEB3B1"/>
				</linearGradient>
				<path style="fill:url(#SVGID_9_);" d="M1402.26,527.9c0,0-21.87,60.64,28.01,85.57c10.36-1.38,6.37-18.58,6.37-18.58
					s-21.67-4.8-15.16-55.38C1415.49,534.58,1402.26,527.9,1402.26,527.9z"/>
				<linearGradient id="SVGID_10_" gradientUnits="userSpaceOnUse" x1="1571.9458" y1="418.3365" x2="1535.7001" y2="522.0745">
					<stop  offset="0" style="stop-color:#FF928E"/>
					<stop  offset="1" style="stop-color:#FEB3B1"/>
				</linearGradient>
				<path style="fill:url(#SVGID_10_);" d="M1532.7,527.9c0,0,15.05,63.3-28.01,85.57c-10.36-1.38-6.37-18.58-6.37-18.58
					s17.47-8.6,15.16-55.38C1519.48,534.58,1532.7,527.9,1532.7,527.9z"/>
				<linearGradient id="SVGID_11_" gradientUnits="userSpaceOnUse" x1="1467.1006" y1="538.4896" x2="1462.6692" y2="717.9638">
					<stop  offset="0" style="stop-color:#09005D"/>
					<stop  offset="1" style="stop-color:#1A0F91"/>
				</linearGradient>
				<path style="fill:url(#SVGID_11_);" d="M1507.01,617.73h-82.09c-4.58,0-8.33-3.75-8.33-8.33v-50.03c0-4.58,3.75-8.33,8.33-8.33
					h82.09c4.58,0,8.33,3.75,8.33,8.33v50.03C1515.35,613.97,1511.6,617.73,1507.01,617.73z"/>
				<g>
					
						<linearGradient id="SVGID_12_" gradientUnits="userSpaceOnUse" x1="1521.5995" y1="613.4327" x2="1568.3665" y2="613.4327" gradientTransform="matrix(1 7.700000e-03 -7.700000e-03 1 1.5937 21.5723)">
						<stop  offset="0" style="stop-color:#4042E2"/>
						<stop  offset="1" style="stop-color:#4F52FF"/>
					</linearGradient>
					<path style="fill:url(#SVGID_12_);" d="M1558.66,637.5c-11.3-2.59-37.42-1.2-37.42-1.2l-1.06,2.88l-1.76,14.3
						c0,0,24.88,4.48,37.14,4.47c1.25,0,2.4-0.19,3.44-0.51c0.37-0.34,0.74-0.68,1.08-1.06
						C1565.28,650.69,1563.78,642.35,1558.66,637.5z"/>
					<linearGradient id="SVGID_13_" gradientUnits="userSpaceOnUse" x1="1549.3374" y1="562.3987" x2="1499.9718" y2="696.1107">
						<stop  offset="0" style="stop-color:#FF928E"/>
						<stop  offset="1" style="stop-color:#FEB3B1"/>
					</linearGradient>
					<path style="fill:url(#SVGID_13_);" d="M1513.73,635.49l4.42,0.19c2.38,0.1,4.62,1.26,6.21,3.21c1.6,1.95,2.42,4.54,2.28,7.17
						c-0.11,2.1-0.97,4.06-2.39,5.46c-1.42,1.39-3.28,2.1-5.18,1.97l-6.77-0.48L1513.73,635.49z"/>
				</g>
				<g>
					
						<linearGradient id="SVGID_14_" gradientUnits="userSpaceOnUse" x1="-7488.1445" y1="560.2452" x2="-7441.3574" y2="560.2452" gradientTransform="matrix(-0.9998 -0.02 -0.02 0.9998 -6070.4727 -63.4056)">
						<stop  offset="0" style="stop-color:#4042E2"/>
						<stop  offset="1" style="stop-color:#4F52FF"/>
					</linearGradient>
					<path style="fill:url(#SVGID_14_);" d="M1365,636.12c11.36-2.25,37.44-0.05,37.44-0.05l0.99,2.91l1.4,14.35
						c0,0-24.98,3.72-37.24,3.33c-1.25-0.04-2.39-0.26-3.43-0.62c-0.37-0.35-0.72-0.71-1.06-1.09
						C1358.05,649.11,1359.76,640.81,1365,636.12z"/>
					<linearGradient id="SVGID_15_" gradientUnits="userSpaceOnUse" x1="1450.4324" y1="522.1039" x2="1401.0405" y2="655.8871">
						<stop  offset="0" style="stop-color:#FF928E"/>
						<stop  offset="1" style="stop-color:#FEB3B1"/>
					</linearGradient>
					<path style="fill:url(#SVGID_15_);" d="M1409.96,635.5l-4.43,0.05c-2.38,0.03-4.65,1.12-6.29,3.02
						c-1.65,1.9-2.53,4.46-2.46,7.1c0.06,2.1,0.87,4.09,2.26,5.53c1.39,1.44,3.23,2.2,5.12,2.12l6.78-0.27L1409.96,635.5z"/>
				</g>
				<linearGradient id="SVGID_16_" gradientUnits="userSpaceOnUse" x1="1482.7208" y1="641.4048" x2="1474.5968" y2="724.5205">
					<stop  offset="0" style="stop-color:#4042E2"/>
					<stop  offset="1" style="stop-color:#4F52FF"/>
				</linearGradient>
				<path style="fill:url(#SVGID_16_);" d="M1561.82,592.66c-5.13-11.8-17.66-13.71-28.33-8.2c-0.19,0.24-67.76,34.88-127.35,50.05
					c1.71,5.47,2.58,11.29,2.77,17.01c0.03,1.27,0.01,2.53-0.06,3.77c45.7-2.35,95.29-17.59,137.91-30.98
					C1559.98,620.06,1567.51,605.74,1561.82,592.66z"/>
				<linearGradient id="SVGID_17_" gradientUnits="userSpaceOnUse" x1="1458.3013" y1="494.482" x2="1448.9274" y2="571.9736">
					<stop  offset="0" style="stop-color:#4042E2"/>
					<stop  offset="1" style="stop-color:#4F52FF"/>
				</linearGradient>
				<path style="fill:url(#SVGID_17_);" d="M1514.06,652.43c-0.18-6.59,1.1-12.73,3.85-18.41c0.08-0.26,0.17-0.51,0.26-0.77
					c-3.4-1.05-7.8-2.48-13.57-4.44c-42.32-14.48-74.6-29.1-105.41-45.94c-11.97-6.54-25.58-2.16-29.41,12.01
					c-3.42,12.64,4.09,23.44,15.49,27.23c34.1,11.35,16.35,8.2,27.49,11.78c29.91,9.25,67.14,17.68,101.38,19.98
					C1514.1,653.38,1514.07,652.9,1514.06,652.43z"/>
				<linearGradient id="SVGID_18_" gradientUnits="userSpaceOnUse" x1="1465.8849" y1="500.0346" x2="1464.7461" y2="400.9604">
					<stop  offset="0" style="stop-color:#FF928E"/>
					<stop  offset="1" style="stop-color:#FEB3B1"/>
				</linearGradient>
				<path style="fill:url(#SVGID_18_);" d="M1440.08,480.06c0,0,4.55,19.72,26.65,19.31c22.5-0.41,24.51-19.38,24.51-19.38
					l-14.7-3.15l-1.23-16.38l-22.11,1.64l-0.41,15.56L1440.08,480.06z"/>
				
					<linearGradient id="SVGID_19_" gradientUnits="userSpaceOnUse" x1="1530.114" y1="-153.8013" x2="1506.3667" y2="-216.2941" gradientTransform="matrix(0.987 0.1608 -0.1608 0.987 -46.6743 443.2292)">
					<stop  offset="0" style="stop-color:#FF928E"/>
					<stop  offset="1" style="stop-color:#FEB3B1"/>
				</linearGradient>
				<path style="fill:url(#SVGID_19_);" d="M1456.3,414.06c0,0-25.34,49.09,4.72,61c21.2,8.4,34.5-32.6,30.53-43.7
					c-6.13-17.17-10.17-15.13-10.17-15.13L1456.3,414.06z"/>
				
					<linearGradient id="SVGID_20_" gradientUnits="userSpaceOnUse" x1="1536.7238" y1="-359.4609" x2="1491.062" y2="-265.342" gradientTransform="matrix(0.987 0.1608 -0.1608 0.987 -46.6743 443.2292)">
					<stop  offset="0" style="stop-color:#09005D"/>
					<stop  offset="1" style="stop-color:#1A0F91"/>
				</linearGradient>
				<path style="fill:url(#SVGID_20_);" d="M1497.65,409.6c12.52,3.44,1.82,30.59-17.03,24.17c-18.85-6.42-26.25-6.33-29.19-1.15
					c-2.94,5.18-3.57,23.55-9.94,14.47c-6.99-9.96-10.88-29.95-2.32-36.4c7.66-5.76,9.44-14.69,18.62-14.38
					c12.19,0.41,21.61-4.99,27.12-1.1C1491.23,399.69,1488.43,407.06,1497.65,409.6z"/>
				
					<linearGradient id="SVGID_21_" gradientUnits="userSpaceOnUse" x1="1307.121" y1="1122.8766" x2="1283.3737" y2="1060.3837" gradientTransform="matrix(0.9911 -0.1329 0.1329 0.9911 105.3614 -307.5613)">
					<stop  offset="0" style="stop-color:#FF928E"/>
					<stop  offset="1" style="stop-color:#FEB3B1"/>
				</linearGradient>
				<path style="fill:url(#SVGID_21_);" d="M1450.27,436.84c0,0-5.4-5.81-6.27,1.19c-0.87,7.01,1.91,16.04,5.17,11.09
					C1452.42,444.17,1450.27,436.84,1450.27,436.84z"/>
			</g>
			<linearGradient id="SVGID_22_" gradientUnits="userSpaceOnUse" x1="1466.6034" y1="524.5258" x2="1463.7274" y2="662.1569">
				<stop  offset="0" style="stop-color:#4042E2"/>
				<stop  offset="1" style="stop-color:#4F52FF"/>
			</linearGradient>
			<path style="fill:url(#SVGID_22_);" d="M1471.79,569.09c0.52,3.54-1.37,6.75-4.91,7.27c-3.54,0.52-6.83-1.92-7.35-5.46
				c-0.52-3.54,1.1-7.05,4.63-7.58C1467.7,562.81,1471.27,565.55,1471.79,569.09z"/>
		</g>
		<g>
			<g>
				<linearGradient id="SVGID_23_" gradientUnits="userSpaceOnUse" x1="429.3499" y1="765.0986" x2="1007.0992" y2="765.0986">
					<stop  offset="0" style="stop-color:#4042E2"/>
					<stop  offset="1" style="stop-color:#4F52FF"/>
				</linearGradient>
				<path style="fill:url(#SVGID_23_);" d="M974.48,991.76l-106.96,3.69c-3.14,0.14-6.12-1.04-8.39-3.22
					c-2.26-2.19-3.51-5.12-3.51-8.27v-40.74c0-9.96-3.9-19.29-10.99-26.28c-6.92-6.82-15.97-10.51-25.71-10.59V784.78
					c0-20.35-16.56-36.9-36.9-36.9H662.25v25.41h119.77c6.34,0,11.5,5.16,11.5,11.5v121.88l-327.1,4.61
					c-3.07-0.02-6.03-1.13-8.23-3.31c-2.21-2.18-3.43-5.09-3.43-8.19V509.33h-25.41v390.44c0,9.96,3.9,19.29,10.99,26.28
					c7.09,6.99,16.43,10.81,26.43,10.62l351.79-4.95c3.06,0.03,6.03,1.13,8.23,3.31c2.21,2.18,3.43,5.09,3.43,8.19v40.74
					c0,10.1,4,19.52,11.26,26.54c6.95,6.71,16,10.36,25.6,10.36c0.44,0,0.87-0.01,1.31-0.02l106.09-3.66V991.76z"/>
				<linearGradient id="SVGID_24_" gradientUnits="userSpaceOnUse" x1="495.6909" y1="1081.1494" x2="992.7594" y2="1081.1494">
					<stop  offset="0" style="stop-color:#4042E2"/>
					<stop  offset="1" style="stop-color:#4F52FF"/>
				</linearGradient>
				<path style="fill:url(#SVGID_24_);" d="M974.48,1041.78l-288.66,4.93c-20,0.34-36.27,16.9-36.27,36.9
					c0,6.34-5.16,11.5-11.5,11.5H495.69v25.41h142.36c20.35,0,36.9-16.56,36.9-36.91c0-6.23,5.07-11.39,11.3-11.49l288.23-4.93
					V1041.78z"/>
				<linearGradient id="SVGID_25_" gradientUnits="userSpaceOnUse" x1="595.9084" y1="1187.8154" x2="992.5419" y2="1187.8154">
					<stop  offset="0" style="stop-color:#4042E2"/>
					<stop  offset="1" style="stop-color:#4F52FF"/>
				</linearGradient>
				<path style="fill:url(#SVGID_25_);" d="M974.48,1095.11H901c-20.35,0-36.9,16.55-36.9,36.9v13.7c0,6.34-5.16,11.5-11.5,11.5
					H632.81c-20.35,0-36.9,16.55-36.9,36.9v49.49c0,10.12,4.01,19.55,11.3,26.57c6.95,6.69,15.98,10.33,25.57,10.33
					c0.47,0,0.94-0.01,1.41-0.03l127.35-4.72l-0.94-25.39l-127.35,4.72c-3.15,0.11-6.13-1.02-8.4-3.21
					c-2.27-2.19-3.52-5.13-3.52-8.28v-49.49c0-6.34,5.16-11.5,11.5-11.5H852.6c20.35,0,36.9-16.55,36.9-36.91v-13.7
					c0-6.34,5.16-11.5,11.5-11.5h73.48V1095.11z"/>
				<linearGradient id="SVGID_26_" gradientUnits="userSpaceOnUse" x1="648.8947" y1="730.9556" x2="992.5443" y2="730.9556">
					<stop  offset="0" style="stop-color:#4042E2"/>
					<stop  offset="1" style="stop-color:#4F52FF"/>
				</linearGradient>
				<path style="fill:url(#SVGID_26_);" d="M974.48,939.84h-56.54c-6.34,0-11.5-5.16-11.5-11.5V668.76
					c0-20.13-16.37-36.68-36.49-36.9c-40.92-0.44-125.32-0.14-171.99,0.08h-0.11c-12.77,0-23.24-10.36-23.36-23.14
					c-0.19-19.55-0.33-46.83,0.01-65.76c0.11-6.01,4.71-10.86,10.7-11.27l141.64-9.77l-1.75-25.35l-141.64,9.77
					c-19.24,1.33-34.01,16.87-34.36,36.16c-0.35,19.22-0.2,46.75-0.02,66.46c0.26,26.68,22.11,48.31,48.76,48.31h0.23
					c46.59-0.22,130.85-0.52,171.59-0.09c6.26,0.07,11.35,5.23,11.35,11.5v259.58c0,20.35,16.55,36.91,36.9,36.91h56.54V939.84z"/>
				<linearGradient id="SVGID_27_" gradientUnits="userSpaceOnUse" x1="1524.723" y1="704.2129" x2="1767.4653" y2="704.2129">
					<stop  offset="0" style="stop-color:#4042E2"/>
					<stop  offset="1" style="stop-color:#4F52FF"/>
				</linearGradient>
				<path style="fill:url(#SVGID_27_);" d="M1742.06,444.4v216.14c0,5.68-4.24,10.58-9.87,11.38l-57.25,8.18
					c-18.06,2.58-31.69,18.29-31.69,36.53v200.08c0,5.88-4.41,10.79-10.26,11.43l-94.9,10.31v25.56l97.64-10.61
					c18.77-2.04,32.92-17.81,32.92-36.69V716.64c0-5.69,4.24-10.58,9.87-11.38l57.25-8.18c18.06-2.58,31.69-18.29,31.69-36.53V444.4
					H1742.06z"/>
				<linearGradient id="SVGID_28_" gradientUnits="userSpaceOnUse" x1="1526.0957" y1="981.1147" x2="2059.8132" y2="981.1147">
					<stop  offset="0" style="stop-color:#4042E2"/>
					<stop  offset="1" style="stop-color:#4F52FF"/>
				</linearGradient>
				<path style="fill:url(#SVGID_28_);" d="M1914.26,1073.44v-96.9c0-6.28,5.11-11.44,11.39-11.5l46.39-0.42
					c19.83-0.18,35.89-15.84,36.55-35.66l10.1-300.63l-25.39-0.85l-10.1,300.63c-0.21,6.17-5.21,11.05-11.39,11.11l-46.39,0.42
					c-20.17,0.18-36.57,16.74-36.57,36.9v96.57l-19.07-0.25c-9.88-0.14-19.33,3.65-26.41,10.63s-10.98,16.32-10.98,26.27v188.1
					c0,3.1-1.21,6-3.42,8.18c-2.21,2.18-5.13,3.32-8.23,3.32l-171.79-2.2c-6.26-0.08-11.35-5.24-11.35-11.5v-135.4
					c0-20.35-16.56-36.9-36.91-36.9h-62.6v25.41h62.6c6.34,0,11.5,5.16,11.5,11.5v135.4c0,20.09,16.34,36.64,36.43,36.9l171.79,2.2
					c0.16,0,0.32,0,0.48,0c9.77,0,18.95-3.77,25.92-10.64c7.08-6.99,10.98-16.31,10.98-26.26v-188.1c0-3.1,1.21-6.01,3.42-8.18
					c2.21-2.18,5.16-3.36,8.23-3.31l190.03,2.5l0.33-25.4L1914.26,1073.44z"/>
				<linearGradient id="SVGID_29_" gradientUnits="userSpaceOnUse" x1="1525.3778" y1="1141.623" x2="1932.2394" y2="1141.623">
					<stop  offset="0" style="stop-color:#4042E2"/>
					<stop  offset="1" style="stop-color:#4F52FF"/>
				</linearGradient>
				<path style="fill:url(#SVGID_29_);" d="M1754.06,1363.43c-8.77,0-15.91-7.04-16.03-15.81l-4.12-300.96l69.31-3.92
					c19.52-1.11,34.82-17.29,34.82-36.85V898.91h-25.41v106.99c0,6.09-4.77,11.13-10.85,11.48l-263.69,14.92v25.45l170.43-9.65
					c0.37,26.87,0.74,53.74,1.1,80.61c0.36,26.21,3.85,191.48,4.6,234.72c0,11.54,9.36,20.9,20.9,20.9h197.11v-20.9H1754.06z"/>
			</g>
			<g>
				<g>
					<linearGradient id="SVGID_30_" gradientUnits="userSpaceOnUse" x1="567.5162" y1="227.4082" x2="347.459" y2="595.6978">
						<stop  offset="0" style="stop-color:#4042E2"/>
						<stop  offset="1" style="stop-color:#4F52FF"/>
					</linearGradient>
					<path style="fill:url(#SVGID_30_);" d="M495.99,341.78l-116.01,3.84c-22.51,3.66-38.79,20.38-38.79,39.84v106.61
						c0,22.4,21.39,40.56,47.77,40.56h104.52c26.38,0,47.77-18.16,47.77-40.56v-98.5C541.25,368.11,528.43,341.77,495.99,341.78z"/>
					<path style="opacity:0.89;fill:#FFFFFF;" d="M493.43,349.5L384.98,353c-21.04,3.33-36.26,18.56-36.26,36.28v97.09
						c0,20.4,19.99,36.94,44.66,36.94h97.71c24.67,0,44.66-16.54,44.66-36.94v-89.7C535.75,373.48,523.76,349.49,493.43,349.5z"/>
				</g>
				<g>
					<linearGradient id="SVGID_31_" gradientUnits="userSpaceOnUse" x1="375.4441" y1="435.6005" x2="506.0591" y2="435.6005">
						<stop  offset="0" style="stop-color:#4042E2"/>
						<stop  offset="1" style="stop-color:#4F52FF"/>
					</linearGradient>
					<circle style="fill:url(#SVGID_31_);" cx="440.75" cy="435.6" r="65.31"/>
					<g>
						<linearGradient id="SVGID_32_" gradientUnits="userSpaceOnUse" x1="432.8763" y1="432.9597" x2="447.8978" y2="432.9597">
							<stop  offset="0" style="stop-color:#DAE3FE"/>
							<stop  offset="1" style="stop-color:#E9EFFD"/>
						</linearGradient>
						<path style="fill:url(#SVGID_32_);" d="M432.88,400.16c0-2.29,0.67-4.1,2-5.43c1.33-1.33,3.2-2,5.59-2
							c2.25,0,4.05,0.67,5.41,2c1.35,1.33,2.03,3.14,2.03,5.43c0,2.36-0.69,4.18-2.08,5.48c-1.39,1.3-3.17,1.95-5.35,1.95
							c-2.29,0-4.12-0.65-5.51-1.95C433.57,404.35,432.88,402.52,432.88,400.16z M447.27,473.19h-13.83v-57.9h13.83V473.19z"/>
					</g>
				</g>
			</g>
			<g>
				<g>
					<linearGradient id="SVGID_33_" gradientUnits="userSpaceOnUse" x1="2178.6948" y1="376.3132" x2="1958.6375" y2="744.6028">
						<stop  offset="0" style="stop-color:#4042E2"/>
						<stop  offset="1" style="stop-color:#4F52FF"/>
					</linearGradient>
					<path style="fill:url(#SVGID_33_);" d="M2107.17,490.68l-116.01,3.84c-22.51,3.66-38.79,20.38-38.79,39.84v106.61
						c0,22.4,21.39,40.56,47.77,40.56h104.52c26.38,0,47.77-18.16,47.77-40.56v-98.5C2152.43,517.02,2139.61,490.68,2107.17,490.68z
						"/>
					<path style="opacity:0.89;fill:#FFFFFF;" d="M2104.61,498.41l-108.45,3.5c-21.04,3.33-36.26,18.56-36.26,36.28v97.09
						c0,20.4,19.99,36.94,44.66,36.94h97.71c24.67,0,44.66-16.54,44.66-36.94v-89.7C2146.92,522.39,2134.93,498.4,2104.61,498.41z"
						/>
				</g>
				<g>
					<linearGradient id="SVGID_34_" gradientUnits="userSpaceOnUse" x1="1986.7679" y1="584.3773" x2="2118.175" y2="584.3773">
						<stop  offset="0" style="stop-color:#4042E2"/>
						<stop  offset="1" style="stop-color:#4F52FF"/>
					</linearGradient>
					<circle style="fill:url(#SVGID_34_);" cx="2052.47" cy="584.38" r="65.7"/>
					<g>
						<linearGradient id="SVGID_35_" gradientUnits="userSpaceOnUse" x1="2018.2924" y1="589.5488" x2="2082.845" y2="589.5488">
							<stop  offset="0" style="stop-color:#DAE3FE"/>
							<stop  offset="1" style="stop-color:#E9EFFD"/>
						</linearGradient>
						<path style="fill:url(#SVGID_35_);" d="M2018.29,563.75c5.12,37.13,24.08,54.53,49.74,62.37l14.82-11.91
							c-26.98-10.92-45.93-30.32-53.97-61.24L2018.29,563.75z"/>
						<linearGradient id="SVGID_36_" gradientUnits="userSpaceOnUse" x1="2067.1316" y1="611.8257" x2="2098.5588" y2="611.8257">
							<stop  offset="0" style="stop-color:#DAE3FE"/>
							<stop  offset="1" style="stop-color:#E9EFFD"/>
						</linearGradient>
						<path style="fill:url(#SVGID_36_);" d="M2067.13,625.84c15.62,2.57,17.48,2.71,30.26-5.76c1.43-0.95,1.57-3.02,0.26-4.13
							l-22.58-19.25c-0.88-0.75-2.24-0.45-2.72,0.61l-3.72,8.22L2067.13,625.84z"/>
						<linearGradient id="SVGID_37_" gradientUnits="userSpaceOnUse" x1="2017.0348" y1="550.7664" x2="2047.8242" y2="550.7664">
							<stop  offset="0" style="stop-color:#DAE3FE"/>
							<stop  offset="1" style="stop-color:#E9EFFD"/>
						</linearGradient>
						<path style="fill:url(#SVGID_37_);" d="M2017.76,564.66c-1.54-14.28-1.28-16.43,7.54-28.31c1.02-1.38,3.1-1.41,4.14-0.04
							l18.02,23.57c0.7,0.92,0.33,2.26-0.75,2.68l-8.41,3.28l-18.77,0.39C2018.63,566.25,2017.86,565.56,2017.76,564.66z"/>
					</g>
				</g>
			</g>
			<g>
				<g>
					<linearGradient id="SVGID_38_" gradientUnits="userSpaceOnUse" x1="1873.9607" y1="188.689" x2="1653.9033" y2="556.9787">
						<stop  offset="0" style="stop-color:#4042E2"/>
						<stop  offset="1" style="stop-color:#4F52FF"/>
					</linearGradient>
					<path style="fill:url(#SVGID_38_);" d="M1802.44,303.06l-116.01,3.84c-22.51,3.66-38.79,20.38-38.79,39.84v106.61
						c0,22.4,21.39,40.56,47.77,40.56h104.52c26.38,0,47.77-18.16,47.77-40.56v-98.5C1847.7,329.39,1834.87,303.05,1802.44,303.06z"
						/>
					<path style="opacity:0.89;fill:#FFFFFF;" d="M1799.87,310.78l-108.45,3.5c-21.04,3.33-36.26,18.56-36.26,36.28v97.09
						c0,20.4,19.99,36.94,44.66,36.94h97.71c24.67,0,44.66-16.54,44.66-36.94v-89.7C1842.19,334.76,1830.2,310.78,1799.87,310.78z"
						/>
				</g>
				<g>
					<linearGradient id="SVGID_39_" gradientUnits="userSpaceOnUse" x1="1710.7162" y1="246.8063" x2="1636.5299" y2="675.6964">
						<stop  offset="0" style="stop-color:#4042E2"/>
						<stop  offset="1" style="stop-color:#4F52FF"/>
					</linearGradient>
					<path style="fill:url(#SVGID_39_);" d="M1711.54,441.12l-88.03,84.34c-3.69,3.54-3.59,9.47,0.23,12.88l0.63,0.56
						c3.37,3.01,8.56,2.7,11.55-0.69l81.05-91.93L1711.54,441.12z"/>
					
						<ellipse transform="matrix(0.9151 -0.4032 0.4032 0.9151 -11.5338 739.1006)" style="fill:#BDD0FB;" cx="1749.61" cy="396.94" rx="56.55" ry="55.53"/>
					<linearGradient id="SVGID_40_" gradientUnits="userSpaceOnUse" x1="1798.4835" y1="262.8608" x2="1708.0688" y2="510.9216">
						<stop  offset="0" style="stop-color:#4042E2"/>
						<stop  offset="1" style="stop-color:#4F52FF"/>
					</linearGradient>
					<path style="fill:url(#SVGID_40_);" d="M1724.7,340.4c-31.8,14.01-46.43,50.69-32.67,81.92c13.76,31.23,50.69,45.19,82.5,31.18
						c31.8-14.01,46.43-50.68,32.67-81.92C1793.44,340.35,1756.51,326.39,1724.7,340.4z M1770.86,445.18
						c-27.13,11.95-58.64,0.04-70.38-26.6c-11.74-26.64,0.74-57.93,27.88-69.88c27.13-11.95,58.64-0.04,70.38,26.6
						C1810.48,401.94,1798,433.23,1770.86,445.18z"/>
				</g>
			</g>
			<g>
				<g>
					<linearGradient id="SVGID_41_" gradientUnits="userSpaceOnUse" x1="693.8931" y1="548.9033" x2="473.8358" y2="917.1929">
						<stop  offset="0" style="stop-color:#4042E2"/>
						<stop  offset="1" style="stop-color:#4F52FF"/>
					</linearGradient>
					<path style="fill:url(#SVGID_41_);" d="M622.37,663.27l-116.01,3.84c-22.51,3.66-38.79,20.38-38.79,39.84v106.61
						c0,22.4,21.39,40.56,47.77,40.56h104.52c26.38,0,47.77-18.16,47.77-40.56v-98.5C667.63,689.61,654.81,663.27,622.37,663.27z"/>
					<path style="opacity:0.89;fill:#FFFFFF;" d="M619.81,671l-108.45,3.5c-21.04,3.33-36.26,18.56-36.26,36.28v97.09
						c0,20.4,19.99,36.94,44.66,36.94h97.71c24.67,0,44.66-16.54,44.66-36.94v-89.7C662.12,694.98,650.13,670.99,619.81,671z"/>
				</g>
				<g>
					<linearGradient id="SVGID_42_" gradientUnits="userSpaceOnUse" x1="624.489" y1="555.4901" x2="531.0773" y2="880.634">
						<stop  offset="0" style="stop-color:#4042E2"/>
						<stop  offset="1" style="stop-color:#4F52FF"/>
					</linearGradient>
					<path style="fill:url(#SVGID_42_);" d="M566.73,820.99c-35.54,0-64.46-28.92-64.46-64.46c0-35.54,28.92-64.46,64.46-64.46
						c35.54,0,64.46,28.92,64.46,64.46C631.19,792.07,602.28,820.99,566.73,820.99z M566.73,702.87
						c-29.59,0-53.66,24.07-53.66,53.66s24.07,53.66,53.66,53.66c29.59,0,53.66-24.07,53.66-53.66S596.32,702.87,566.73,702.87z"/>
					<linearGradient id="SVGID_43_" gradientUnits="userSpaceOnUse" x1="627.1355" y1="556.2498" x2="533.724" y2="881.3933">
						<stop  offset="0" style="stop-color:#4042E2"/>
						<stop  offset="1" style="stop-color:#4F52FF"/>
					</linearGradient>
					<path style="fill-rule:evenodd;clip-rule:evenodd;fill:url(#SVGID_43_);" d="M546.54,781.35v-46.34c0-4.95,5.39-8.02,9.65-5.49
						l39.05,23.17c4.17,2.47,4.17,8.51,0,10.99l-39.05,23.17C551.93,789.37,546.54,786.3,546.54,781.35z"/>
				</g>
			</g>
			<g>
				<g>
					<linearGradient id="SVGID_44_" gradientUnits="userSpaceOnUse" x1="1960.5751" y1="614.2419" x2="1740.5177" y2="982.5316">
						<stop  offset="0" style="stop-color:#4042E2"/>
						<stop  offset="1" style="stop-color:#4F52FF"/>
					</linearGradient>
					<path style="fill:url(#SVGID_44_);" d="M1889.05,728.61l-116.01,3.84c-22.51,3.66-38.79,20.38-38.79,39.84v106.61
						c0,22.4,21.39,40.56,47.77,40.56h104.52c26.38,0,47.77-18.16,47.77-40.56v-98.5C1934.31,754.95,1921.49,728.6,1889.05,728.61z"
						/>
					<path style="opacity:0.89;fill:#FFFFFF;" d="M1886.49,736.33l-108.45,3.5c-21.04,3.33-36.26,18.56-36.26,36.28v97.09
						c0,20.4,19.99,36.94,44.66,36.94h97.71c24.67,0,44.66-16.54,44.66-36.94v-89.7C1928.8,760.32,1916.81,736.33,1886.49,736.33z"
						/>
				</g>
				<linearGradient id="SVGID_45_" gradientUnits="userSpaceOnUse" x1="1911.9141" y1="515.8278" x2="1800.7379" y2="954.8306">
					<stop  offset="0" style="stop-color:#4042E2"/>
					<stop  offset="1" style="stop-color:#4F52FF"/>
				</linearGradient>
				<path style="fill:url(#SVGID_45_);" d="M1771.61,828.36c-4.3-25.19,4.81-39.19,13.21-46.5c15.81-13.75,43.99-16.93,71.82-8.11
					c27.27,8.66,46.49,33.72,42.85,55.87c-1.44,8.78-8.91,27.98-46.29,31.03c7.84,3.77,18.48,8.41,28.24,11.15
					c1.82,0.51,2.98,2.25,2.74,4.13c-0.24,1.87-1.78,3.25-3.66,3.29c-1.1,0.02-2.49,0.04-4.13,0.04
					C1853.14,879.26,1779.64,875.49,1771.61,828.36z M1879.6,878.33C1879.6,878.33,1879.6,878.33,1879.6,878.33L1879.6,878.33z
					 M1880.37,872.44C1880.38,872.44,1880.38,872.44,1880.37,872.44C1880.38,872.44,1880.38,872.44,1880.37,872.44z M1839.93,854.25
					c30.82,0.65,50.09-8.82,52.87-25.73c3.06-18.63-14.44-40.75-38.21-48.3c-20.99-6.66-49.32-7.16-65.31,6.76
					c-10.31,8.97-14,22.51-10.98,40.24c5.95,34.93,54.78,43.08,83.64,44.82c-12.68-5.3-23.1-11.08-23.73-11.43l-11.84-6.6
					L1839.93,854.25z"/>
			</g>
			<g>
				<g>
					<linearGradient id="SVGID_46_" gradientUnits="userSpaceOnUse" x1="544.7261" y1="898.4198" x2="324.6688" y2="1266.7095">
						<stop  offset="0" style="stop-color:#4042E2"/>
						<stop  offset="1" style="stop-color:#4F52FF"/>
					</linearGradient>
					<path style="fill:url(#SVGID_46_);" d="M473.2,1012.79l-116.01,3.84c-22.51,3.66-38.79,20.38-38.79,39.84v106.61
						c0,22.4,21.39,40.56,47.77,40.56h104.52c26.38,0,47.77-18.16,47.77-40.56v-98.5C518.46,1039.12,505.64,1012.78,473.2,1012.79z"
						/>
					<path style="opacity:0.89;fill:#FFFFFF;" d="M470.64,1020.51l-108.45,3.5c-21.04,3.33-36.26,18.56-36.26,36.28v97.09
						c0,20.4,19.99,36.94,44.66,36.94h97.71c24.67,0,44.66-16.54,44.66-36.94v-89.7C512.96,1044.5,500.96,1020.51,470.64,1020.51z"
						/>
				</g>
				<g>
					<linearGradient id="SVGID_47_" gradientUnits="userSpaceOnUse" x1="352.7307" y1="1109.1542" x2="484.1378" y2="1109.1542">
						<stop  offset="0" style="stop-color:#4042E2"/>
						<stop  offset="1" style="stop-color:#4F52FF"/>
					</linearGradient>
					<circle style="fill:url(#SVGID_47_);" cx="418.43" cy="1109.15" r="65.7"/>
					<g>
						<linearGradient id="SVGID_48_" gradientUnits="userSpaceOnUse" x1="398.3896" y1="1078.3589" x2="441.5463" y2="1078.3589">
							<stop  offset="0" style="stop-color:#DAE3FE"/>
							<stop  offset="1" style="stop-color:#E9EFFD"/>
						</linearGradient>
						<path style="fill:url(#SVGID_48_);" d="M441.55,1076.15c0,11.92-9.66,24.78-21.58,24.78c-11.92,0-21.58-12.87-21.58-24.78
							s9.66-20.37,21.58-20.37C431.89,1055.78,441.55,1064.24,441.55,1076.15z"/>
						<linearGradient id="SVGID_49_" gradientUnits="userSpaceOnUse" x1="378.2515" y1="1127.3184" x2="461.4549" y2="1127.3184">
							<stop  offset="0" style="stop-color:#DAE3FE"/>
							<stop  offset="1" style="stop-color:#E9EFFD"/>
						</linearGradient>
						<path style="fill:url(#SVGID_49_);" d="M393.19,1146.82h52.68c5.55,0,10.45-3.58,12.14-8.87l2.83-8.86
							c2.08-6.49-1.3-13.51-7.7-15.85c-21.44-7.84-43.6-6.83-66.31,0.72c-6.36,2.12-9.89,8.92-8.14,15.39l2.18,8.05
							C382.39,1142.96,387.43,1146.82,393.19,1146.82z"/>
					</g>
				</g>
			</g>
			<g>
				<g>
					<linearGradient id="SVGID_50_" gradientUnits="userSpaceOnUse" x1="2225.2571" y1="880.0519" x2="2005.1998" y2="1248.3416">
						<stop  offset="0" style="stop-color:#4042E2"/>
						<stop  offset="1" style="stop-color:#4F52FF"/>
					</linearGradient>
					<path style="fill:url(#SVGID_50_);" d="M2153.73,994.42l-116.01,3.84c-22.51,3.66-38.79,20.38-38.79,39.84v106.61
						c0,22.4,21.39,40.56,47.77,40.56h104.52c26.38,0,47.77-18.16,47.77-40.56v-98.5C2199,1020.76,2186.17,994.41,2153.73,994.42z"
						/>
					<path style="opacity:0.89;fill:#FFFFFF;" d="M2151.17,1002.14l-108.45,3.5c-21.04,3.33-36.26,18.56-36.26,36.28v97.09
						c0,20.4,19.99,36.94,44.66,36.94h97.71c24.67,0,44.66-16.54,44.66-36.94v-89.7C2193.49,1026.13,2181.5,1002.14,2151.17,1002.14
						z"/>
				</g>
				<linearGradient id="SVGID_51_" gradientUnits="userSpaceOnUse" x1="2033.3302" y1="1088.1161" x2="2164.7373" y2="1088.1161">
					<stop  offset="0" style="stop-color:#4042E2"/>
					<stop  offset="1" style="stop-color:#4F52FF"/>
				</linearGradient>
				<circle style="fill:url(#SVGID_51_);" cx="2099.03" cy="1088.12" r="65.7"/>
				<g>
					<linearGradient id="SVGID_52_" gradientUnits="userSpaceOnUse" x1="2056.1787" y1="1057.6677" x2="2149.5854" y2="1057.6677">
						<stop  offset="0" style="stop-color:#DAE3FE"/>
						<stop  offset="1" style="stop-color:#E9EFFD"/>
					</linearGradient>
					<path style="fill:url(#SVGID_52_);" d="M2145.77,1053.86h-85.78c-2.1,0-3.81,1.71-3.81,3.81c0,2.1,1.71,3.81,3.81,3.81h85.78
						c2.1,0,3.81-1.71,3.81-3.81C2149.59,1055.56,2147.88,1053.86,2145.77,1053.86z"/>
					<linearGradient id="SVGID_53_" gradientUnits="userSpaceOnUse" x1="2056.717" y1="1075.7456" x2="2141.7256" y2="1075.7456">
						<stop  offset="0" style="stop-color:#DAE3FE"/>
						<stop  offset="1" style="stop-color:#E9EFFD"/>
					</linearGradient>
					<path style="fill:url(#SVGID_53_);" d="M2137.91,1071.93h-77.39c-2.1,0-3.81,1.71-3.81,3.81s1.71,3.81,3.81,3.81h77.39
						c2.1,0,3.81-1.71,3.81-3.81S2140.02,1071.93,2137.91,1071.93z"/>
					<linearGradient id="SVGID_54_" gradientUnits="userSpaceOnUse" x1="2056.1787" y1="1094.0027" x2="2132.7527" y2="1094.0027">
						<stop  offset="0" style="stop-color:#DAE3FE"/>
						<stop  offset="1" style="stop-color:#E9EFFD"/>
					</linearGradient>
					<path style="fill:url(#SVGID_54_);" d="M2128.94,1090.19h-68.95c-2.1,0-3.81,1.71-3.81,3.81c0,2.1,1.71,3.81,3.81,3.81h68.95
						c2.1,0,3.81-1.71,3.81-3.81C2132.75,1091.9,2131.05,1090.19,2128.94,1090.19z"/>
					<linearGradient id="SVGID_55_" gradientUnits="userSpaceOnUse" x1="2056.4478" y1="1110.059" x2="2125.9333" y2="1110.059">
						<stop  offset="0" style="stop-color:#DAE3FE"/>
						<stop  offset="1" style="stop-color:#E9EFFD"/>
					</linearGradient>
					<path style="fill:url(#SVGID_55_);" d="M2122.12,1106.25h-61.86c-2.1,0-3.81,1.71-3.81,3.81c0,2.1,1.71,3.81,3.81,3.81h61.86
						c2.1,0,3.81-1.71,3.81-3.81C2125.93,1107.95,2124.23,1106.25,2122.12,1106.25z"/>
					<linearGradient id="SVGID_56_" gradientUnits="userSpaceOnUse" x1="2056.9861" y1="1128.1368" x2="2117.3193" y2="1128.1368">
						<stop  offset="0" style="stop-color:#DAE3FE"/>
						<stop  offset="1" style="stop-color:#E9EFFD"/>
					</linearGradient>
					<path style="fill:url(#SVGID_56_);" d="M2113.51,1124.33h-52.71c-2.1,0-3.81,1.71-3.81,3.81c0,2.1,1.71,3.81,3.81,3.81h52.71
						c2.1,0,3.81-1.71,3.81-3.81C2117.32,1126.03,2115.61,1124.33,2113.51,1124.33z"/>
				</g>
			</g>
			<g>
				<g>
					<linearGradient id="SVGID_57_" gradientUnits="userSpaceOnUse" x1="1018.7845" y1="296.2681" x2="798.7272" y2="664.5577">
						<stop  offset="0" style="stop-color:#4042E2"/>
						<stop  offset="1" style="stop-color:#4F52FF"/>
					</linearGradient>
					<path style="fill:url(#SVGID_57_);" d="M947.26,410.64l-116.01,3.84c-22.51,3.66-38.79,20.38-38.79,39.84v106.61
						c0,22.4,21.39,40.56,47.77,40.56h104.52c26.38,0,47.77-18.16,47.77-40.56v-98.5C992.52,436.97,979.7,410.63,947.26,410.64z"/>
					<path style="opacity:0.89;fill:#FFFFFF;" d="M944.7,418.36l-108.45,3.5c-21.04,3.33-36.26,18.56-36.26,36.28v97.09
						c0,20.4,20,36.94,44.66,36.94h97.71c24.67,0,44.66-16.54,44.66-36.94v-89.7C987.01,442.34,975.02,418.35,944.7,418.36z"/>
				</g>
				<linearGradient id="SVGID_58_" gradientUnits="userSpaceOnUse" x1="826.8576" y1="504.3322" x2="958.2647" y2="504.3322">
					<stop  offset="0" style="stop-color:#4042E2"/>
					<stop  offset="1" style="stop-color:#4F52FF"/>
				</linearGradient>
				<circle style="fill:url(#SVGID_58_);" cx="892.56" cy="504.33" r="65.7"/>
				<g>
					<linearGradient id="SVGID_59_" gradientUnits="userSpaceOnUse" x1="849.706" y1="473.8839" x2="943.1129" y2="473.8839">
						<stop  offset="0" style="stop-color:#DAE3FE"/>
						<stop  offset="1" style="stop-color:#E9EFFD"/>
					</linearGradient>
					<path style="fill:url(#SVGID_59_);" d="M939.3,470.07h-85.78c-2.1,0-3.81,1.71-3.81,3.81c0,2.1,1.71,3.81,3.81,3.81h85.78
						c2.1,0,3.81-1.71,3.81-3.81C943.11,471.78,941.41,470.07,939.3,470.07z"/>
					<linearGradient id="SVGID_60_" gradientUnits="userSpaceOnUse" x1="850.2444" y1="491.9619" x2="935.2529" y2="491.9619">
						<stop  offset="0" style="stop-color:#DAE3FE"/>
						<stop  offset="1" style="stop-color:#E9EFFD"/>
					</linearGradient>
					<path style="fill:url(#SVGID_60_);" d="M931.44,488.15h-77.39c-2.1,0-3.81,1.71-3.81,3.81c0,2.1,1.71,3.81,3.81,3.81h77.39
						c2.1,0,3.81-1.71,3.81-3.81C935.25,489.86,933.55,488.15,931.44,488.15z"/>
					<linearGradient id="SVGID_61_" gradientUnits="userSpaceOnUse" x1="849.706" y1="510.2188" x2="926.2801" y2="510.2188">
						<stop  offset="0" style="stop-color:#DAE3FE"/>
						<stop  offset="1" style="stop-color:#E9EFFD"/>
					</linearGradient>
					<path style="fill:url(#SVGID_61_);" d="M922.47,506.41h-68.95c-2.1,0-3.81,1.71-3.81,3.81s1.71,3.81,3.81,3.81h68.95
						c2.1,0,3.81-1.71,3.81-3.81S924.57,506.41,922.47,506.41z"/>
					<linearGradient id="SVGID_62_" gradientUnits="userSpaceOnUse" x1="849.9752" y1="526.2751" x2="919.4607" y2="526.2751">
						<stop  offset="0" style="stop-color:#DAE3FE"/>
						<stop  offset="1" style="stop-color:#E9EFFD"/>
					</linearGradient>
					<path style="fill:url(#SVGID_62_);" d="M915.65,522.46h-61.86c-2.1,0-3.81,1.71-3.81,3.81c0,2.1,1.71,3.81,3.81,3.81h61.86
						c2.1,0,3.81-1.71,3.81-3.81C919.46,524.17,917.75,522.46,915.65,522.46z"/>
					<linearGradient id="SVGID_63_" gradientUnits="userSpaceOnUse" x1="850.5136" y1="544.353" x2="910.8469" y2="544.353">
						<stop  offset="0" style="stop-color:#DAE3FE"/>
						<stop  offset="1" style="stop-color:#E9EFFD"/>
					</linearGradient>
					<path style="fill:url(#SVGID_63_);" d="M907.04,540.54h-52.71c-2.1,0-3.81,1.71-3.81,3.81c0,2.1,1.71,3.81,3.81,3.81h52.71
						c2.1,0,3.81-1.71,3.81-3.81C910.85,542.25,909.14,540.54,907.04,540.54z"/>
				</g>
			</g>
			<g>
				<g>
					<linearGradient id="SVGID_64_" gradientUnits="userSpaceOnUse" x1="964.4039" y1="1087.86" x2="744.3467" y2="1456.1497">
						<stop  offset="0" style="stop-color:#4042E2"/>
						<stop  offset="1" style="stop-color:#4F52FF"/>
					</linearGradient>
					<path style="fill:url(#SVGID_64_);" d="M892.88,1202.23l-116.01,3.84c-22.51,3.66-38.79,20.38-38.79,39.84v106.61
						c0,22.4,21.39,40.56,47.77,40.56h104.52c26.38,0,47.77-18.16,47.77-40.56v-98.5C938.14,1228.56,925.32,1202.22,892.88,1202.23z
						"/>
					<path style="opacity:0.89;fill:#FFFFFF;" d="M890.32,1209.95l-108.45,3.5c-21.04,3.33-36.26,18.56-36.26,36.28v97.09
						c0,20.4,19.99,36.94,44.66,36.94h97.71c24.67,0,44.66-16.54,44.66-36.94v-89.7C932.63,1233.94,920.64,1209.95,890.32,1209.95z"
						/>
				</g>
				<g>
					<linearGradient id="SVGID_65_" gradientUnits="userSpaceOnUse" x1="773.8583" y1="1297.2544" x2="903.8842" y2="1297.2544">
						<stop  offset="0" style="stop-color:#4042E2"/>
						<stop  offset="1" style="stop-color:#4F52FF"/>
					</linearGradient>
					<circle style="fill:url(#SVGID_65_);" cx="838.87" cy="1297.25" r="65.01"/>
					<g>
						<linearGradient id="SVGID_66_" gradientUnits="userSpaceOnUse" x1="806.0273" y1="1299.6604" x2="823.1054" y2="1299.6604">
							<stop  offset="0" style="stop-color:#DAE3FE"/>
							<stop  offset="1" style="stop-color:#E9EFFD"/>
						</linearGradient>
						<path style="fill:url(#SVGID_66_);" d="M823.11,1275.65c0-1.68-1.36-3.03-3.03-3.03h-11.01c-1.68,0-3.03,1.36-3.03,3.03v48.01
							c0,1.68,1.36,3.03,3.03,3.03h11.01c1.68,0,3.03-1.36,3.03-3.03V1275.65z"/>
						<linearGradient id="SVGID_67_" gradientUnits="userSpaceOnUse" x1="826.9005" y1="1291.1215" x2="871.4932" y2="1291.1215">
							<stop  offset="0" style="stop-color:#DAE3FE"/>
							<stop  offset="1" style="stop-color:#E9EFFD"/>
						</linearGradient>
						<path style="fill:url(#SVGID_67_);" d="M860.38,1272.62h-10.71v-12.95c0-4.21-2.48-6.98-6.69-6.98h-0.27
							c-4.21,0-7.62,3.09-7.62,7.3l-3.76,12.98c-1.68,0-4.43,1.2-4.43,2.87v49.77c0,1.68,4.16,3.93,5.83,3.93h2.36h25.28
							c6.29,0,11.12-6,11.12-12.29v-33.04C871.49,1277.92,866.67,1272.62,860.38,1272.62z"/>
					</g>
				</g>
			</g>
			<g>
				<g>
					<linearGradient id="SVGID_68_" gradientUnits="userSpaceOnUse" x1="2148.5232" y1="1152.7479" x2="1928.4659" y2="1521.0376">
						<stop  offset="0" style="stop-color:#4042E2"/>
						<stop  offset="1" style="stop-color:#4F52FF"/>
					</linearGradient>
					<path style="fill:url(#SVGID_68_);" d="M2077,1267.12l-116.01,3.84c-22.51,3.66-38.79,20.38-38.79,39.84v106.61
						c0,22.4,21.39,40.56,47.77,40.56h104.52c26.38,0,47.77-18.16,47.77-40.56v-98.5C2122.26,1293.45,2109.44,1267.11,2077,1267.12z
						"/>
					<path style="opacity:0.89;fill:#FFFFFF;" d="M2074.44,1274.84l-108.45,3.5c-21.04,3.33-36.26,18.56-36.26,36.28v97.09
						c0,20.4,19.99,36.94,44.66,36.94h97.71c24.67,0,44.66-16.54,44.66-36.94v-89.7
						C2116.75,1298.82,2104.76,1274.83,2074.44,1274.84z"/>
				</g>
				<g>
					<linearGradient id="SVGID_69_" gradientUnits="userSpaceOnUse" x1="1957.2184" y1="1361.7472" x2="2087.2444" y2="1361.7472">
						<stop  offset="0" style="stop-color:#4042E2"/>
						<stop  offset="1" style="stop-color:#4F52FF"/>
					</linearGradient>
					<circle style="fill:url(#SVGID_69_);" cx="2022.23" cy="1361.75" r="65.01"/>
					<linearGradient id="SVGID_70_" gradientUnits="userSpaceOnUse" x1="1980.8411" y1="1363.4398" x2="2067.7644" y2="1363.4398">
						<stop  offset="0" style="stop-color:#DAE3FE"/>
						<stop  offset="1" style="stop-color:#E9EFFD"/>
					</linearGradient>
					<path style="fill:url(#SVGID_70_);" d="M2064.94,1332.63c-0.14-0.08-0.32-0.05-0.44,0.05l-39.81,33.15
						c-3.43,2.86-8.78,2.73-12.03-0.3l-29.61-27.44c-0.25-0.23-0.65-0.21-0.87,0.05c-0.8,0.93-1.35,2.13-1.35,3.44v47.67
						c0,2.79,2.26,5.05,5.05,5.05h73.69c2.84,0,5.19-2.07,5.34-4.91l2.82-51.83C2067.87,1335.4,2066.7,1333.57,2064.94,1332.63z"/>
					<linearGradient id="SVGID_71_" gradientUnits="userSpaceOnUse" x1="1982.9642" y1="1346.1974" x2="2063.9395" y2="1346.1974">
						<stop  offset="0" style="stop-color:#DAE3FE"/>
						<stop  offset="1" style="stop-color:#E9EFFD"/>
					</linearGradient>
					<path style="fill:url(#SVGID_71_);" d="M2024.7,1362.08c0.35-0.29,0.7-0.58,1.05-0.87c3.81-3.18,7.63-6.35,11.44-9.53
						c5.37-4.47,10.74-8.94,16.1-13.41c2.22-1.85,4.44-3.7,6.67-5.55c0.6-0.5,1.16-1.06,1.74-1.59c0.34-0.31,2.59-2.2,2.19-2.64
						c-0.09-0.1-0.23-0.12-0.36-0.14c-2.31-0.27-4.65,0.08-6.98,0.21c-2.43,0.14-4.87,0.27-7.3,0.41
						c-6.24,0.35-12.49,0.7-18.73,1.04c-6.81,0.38-13.63,0.76-20.44,1.14c-5.55,0.31-11.09,0.62-16.64,0.93
						c-1.72,0.1-3.45,0.19-5.17,0.29c-1.19,0.07-6.59,0.09-5.01,2.17c0.6,0.8,1.53,1.31,2.26,1.99c1.31,1.21,2.61,2.43,3.92,3.64
						c4.98,4.63,9.95,9.25,14.93,13.88c2.77,2.58,5.54,5.16,8.32,7.73C2015.92,1364.81,2021.27,1364.94,2024.7,1362.08z"/>
				</g>
			</g>
		</g>
	</g>
</g>
</svg>
